<svg width="72" height="72" viewBox="0 0 72 72" fill="none" xmlns="http://www.w3.org/2000/svg">
<g clip-path="url(#clip0_26_3162)">
<path d="M55.1635 70.9453C63.8796 70.9453 70.9453 63.8795 70.9453 55.1635C70.9453 46.4475 63.8796 39.3817 55.1635 39.3817C46.4475 39.3817 39.3817 46.4475 39.3817 55.1635C39.3817 63.8795 46.4475 70.9453 55.1635 70.9453Z" fill="#CCF49F"/>
<path d="M57.418 68.6908C48.702 68.6908 41.6362 61.6251 41.6362 52.909C41.6362 49.1253 42.9706 45.655 45.1907 42.9363C41.6467 45.8302 39.3816 50.2312 39.3816 55.1635C39.3816 63.8796 46.4473 70.9453 55.1634 70.9453C60.0957 70.9453 64.4967 68.6802 67.3906 65.1362C64.6722 67.3562 61.2018 68.6908 57.418 68.6908Z" fill="#B3E59F"/>
<path d="M16.8365 70.9453C25.5525 70.9453 32.6182 63.8795 32.6182 55.1635C32.6182 46.4475 25.5525 39.3817 16.8365 39.3817C8.12043 39.3817 1.05469 46.4475 1.05469 55.1635C1.05469 63.8795 8.12043 70.9453 16.8365 70.9453Z" fill="#EAD1FF"/>
<path d="M19.091 68.6908C10.3749 68.6908 3.30919 61.6251 3.30919 52.909C3.30919 49.1253 4.64358 45.655 6.86362 42.9363C3.31973 45.8302 1.05469 50.2312 1.05469 55.1635C1.05469 63.8796 8.12039 70.9453 16.8365 70.9453C21.7687 70.9453 26.1698 68.6802 29.0637 65.1362C26.345 67.3562 22.8746 68.6908 19.091 68.6908Z" fill="#D6BDEF"/>
<path d="M55.1635 32.6182C63.8796 32.6182 70.9453 25.5525 70.9453 16.8365C70.9453 8.12043 63.8796 1.05469 55.1635 1.05469C46.4475 1.05469 39.3817 8.12043 39.3817 16.8365C39.3817 25.5525 46.4475 32.6182 55.1635 32.6182Z" fill="#FF8086"/>
<path d="M57.418 30.3636C48.702 30.3636 41.6362 23.2979 41.6362 14.5818C41.6362 10.7982 42.9706 7.32783 45.1907 4.60913C41.6467 7.50305 39.3816 11.9041 39.3816 16.8363C39.3816 25.5524 46.4473 32.6181 55.1634 32.6181C60.0957 32.6181 64.4967 30.3531 67.3906 26.809C64.6722 29.0292 61.2018 30.3636 57.418 30.3636Z" fill="#E5646E"/>
<path d="M16.8365 32.6182C25.5525 32.6182 32.6182 25.5525 32.6182 16.8365C32.6182 8.12043 25.5525 1.05469 16.8365 1.05469C8.12043 1.05469 1.05469 8.12043 1.05469 16.8365C1.05469 25.5525 8.12043 32.6182 16.8365 32.6182Z" fill="#A4CCFF"/>
<path d="M19.091 30.3636C10.3749 30.3636 3.30919 23.2979 3.30919 14.5818C3.30919 10.7982 4.64358 7.32783 6.86362 4.60913C3.31973 7.50319 1.05469 11.9041 1.05469 16.8365C1.05469 25.5526 8.12039 32.6183 16.8365 32.6183C21.7687 32.6183 26.1698 30.3532 29.0637 26.8092C26.345 29.0292 22.8746 30.3636 19.091 30.3636Z" fill="#8BB3EA"/>
<path d="M61.2162 17.987L52.516 22.3371C51.6607 22.7647 50.6545 22.1427 50.6545 21.1866V12.4864C50.6545 11.5302 51.6609 10.9083 52.516 11.336L61.2162 15.6861C62.1641 16.1601 62.1641 17.5129 61.2162 17.987Z" fill="white"/>
<path d="M21.3455 48.3999H12.3273C11.0822 48.3999 10.0728 49.4093 10.0728 50.6544V59.6725C10.0728 60.9176 11.0822 61.927 12.3273 61.927H21.3455C22.5906 61.927 23.6 60.9176 23.6 59.6725V50.6545C23.6001 49.4093 22.5907 48.3999 21.3455 48.3999Z" fill="white"/>
<path d="M53.6153 47.42C50.5433 48.0038 48.0566 50.4599 47.4382 53.525C46.9803 55.7944 47.5005 57.9358 48.6488 59.6136L47.2725 63.0543L50.7132 61.678C52.391 62.8264 54.5326 63.3467 56.802 62.8887C59.8672 62.2702 62.3233 59.7834 62.9069 56.7114C63.9637 51.1496 59.1771 46.3632 53.6153 47.42Z" fill="white"/>
<path d="M16.8365 57.4181C18.0816 57.4181 19.091 56.4087 19.091 55.1636C19.091 53.9184 18.0816 52.9091 16.8365 52.9091C15.5913 52.9091 14.582 53.9184 14.582 55.1636C14.582 56.4087 15.5913 57.4181 16.8365 57.4181Z" fill="#D6BDEF"/>
<path d="M19.091 16.7637C19.6734 16.7637 20.1457 16.2915 20.1457 15.7091C20.1457 15.1266 19.6734 14.6544 19.091 14.6544H16.7638V12.3273C16.7638 11.0441 17.8078 10.0002 19.091 10.0002H20.2182C20.8007 10.0002 21.2729 9.52803 21.2729 8.94556C21.2729 8.36309 20.8007 7.89087 20.2182 7.89087H19.091C16.6447 7.89087 14.6544 9.88099 14.6544 12.3273V14.6544H12.3273C11.7449 14.6544 11.2726 15.1266 11.2726 15.7091C11.2726 16.2915 11.7449 16.7637 12.3273 16.7637H14.6544V24.7272C14.6544 25.3097 15.1266 25.7819 15.7091 25.7819C16.2915 25.7819 16.7638 25.3097 16.7638 24.7272V16.7637H19.091Z" fill="black"/>
<path d="M56.2182 38.3611V33.6389C65.0123 33.0926 72 25.7657 72 16.8365C72 13.0157 70.7522 9.41358 68.3914 6.41981C68.0307 5.96222 67.3677 5.88389 66.9102 6.24459C66.4529 6.60516 66.3744 7.26834 66.735 7.7258C68.7995 10.3438 69.8906 13.4942 69.8906 16.8365C69.8906 24.957 63.2842 31.5636 55.1635 31.5636C47.0429 31.5636 40.4364 24.957 40.4364 16.8365C40.4364 8.71594 47.043 2.10938 55.1635 2.10938C58.1939 2.10938 61.1041 3.02231 63.5795 4.74933C64.0574 5.08261 64.7146 4.96575 65.0479 4.48791C65.3812 4.0102 65.2642 3.35278 64.7865 3.0195C61.9553 1.04414 58.6277 0 55.1635 0C46.2343 0 38.9074 6.98766 38.3611 15.7818H33.6389C33.0926 6.98766 25.7657 0 16.8365 0C7.55269 0 0 7.55269 0 16.8365C0 25.7659 6.98766 33.0926 15.7818 33.6389V38.3611C6.98766 38.9074 0 46.2343 0 55.1635C0 64.4473 7.55269 72 16.8365 72C25.7659 72 33.0926 65.0123 33.6389 56.2182H38.3611C38.9074 65.0123 46.2343 72 55.1635 72C64.4473 72 72 64.4473 72 55.1635C72 46.2343 65.0123 38.9074 56.2182 38.3611ZM2.10938 16.8365C2.10938 8.7158 8.7158 2.10938 16.8365 2.10938C24.9571 2.10938 31.5636 8.7158 31.5636 16.8365C31.5636 24.9571 24.957 31.5636 16.8365 31.5636C8.71594 31.5636 2.10938 24.957 2.10938 16.8365ZM16.8365 69.8906C8.7158 69.8906 2.10938 63.2842 2.10938 55.1635C2.10938 47.0429 8.7158 40.4364 16.8365 40.4364C19.8668 40.4364 22.777 41.3494 25.2525 43.0764C25.7303 43.4097 26.3877 43.2927 26.7209 42.815C27.0541 42.3373 26.9371 41.6798 26.4594 41.3466C23.9169 39.5727 20.9737 38.5526 17.8912 38.3625V33.6389C26.3364 33.1142 33.1142 26.3363 33.6389 17.8912H38.3611C38.8858 26.3364 45.6637 33.1142 54.1088 33.6389V38.3611C45.6636 38.8858 38.8858 45.6637 38.3611 54.1088H33.6372C33.4285 50.6815 32.2065 47.4635 30.0644 44.7467C29.7037 44.2893 29.0406 44.211 28.583 44.5717C28.1257 44.9322 28.0472 45.5954 28.4078 46.0529C30.4722 48.671 31.5633 51.8214 31.5633 55.1637C31.5636 63.2842 24.957 69.8906 16.8365 69.8906ZM55.1635 69.8906C47.043 69.8906 40.4364 63.2842 40.4364 55.1635C40.4364 47.0429 47.043 40.4364 55.1635 40.4364C63.2841 40.4364 69.8906 47.043 69.8906 55.1635C69.8906 63.2841 63.2842 69.8906 55.1635 69.8906Z" fill="black"/>
<path d="M52.9876 10.3927C52.2565 10.027 51.4052 10.0654 50.7101 10.4952C50.0148 10.9248 49.5997 11.6693 49.5997 12.4866V21.1868C49.5997 22.0041 50.0148 22.7484 50.7101 23.1781C51.0884 23.412 51.5129 23.5298 51.9393 23.5298C52.2963 23.5298 52.6545 23.4472 52.9876 23.2805L61.6878 18.9304C62.486 18.5313 62.9819 17.7291 62.9819 16.8367C62.9819 15.9443 62.486 15.142 61.6878 14.7429L52.9876 10.3927ZM60.7445 17.0437L52.0442 21.3938C51.9488 21.4414 51.8691 21.4146 51.8189 21.3836C51.7687 21.3527 51.7091 21.2933 51.7091 21.1866V12.4864C51.7091 12.3797 51.7688 12.3203 51.8189 12.2894C51.8493 12.2706 51.8906 12.2533 51.9398 12.2533C51.9716 12.2533 52.0068 12.2604 52.0442 12.2793L60.7444 16.6294C60.8293 16.6718 60.8723 16.7415 60.8723 16.8365C60.8723 16.9316 60.8293 17.001 60.7445 17.0437Z" fill="black"/>
<path d="M21.3456 47.3452H12.3273C10.5026 47.3452 9.01814 48.8298 9.01814 50.6544V59.6725C9.01814 61.4973 10.5027 62.9817 12.3273 62.9817H21.3455C23.1702 62.9817 24.6547 61.4972 24.6547 59.6725V50.6544C24.6548 48.8298 23.1702 47.3452 21.3456 47.3452ZM22.5454 59.6727C22.5454 60.3343 22.0071 60.8725 21.3456 60.8725H12.3273C11.6657 60.8725 11.1275 60.3342 11.1275 59.6727V50.6545C11.1275 49.9929 11.6658 49.4547 12.3273 49.4547H21.3455C22.0071 49.4547 22.5453 49.993 22.5453 50.6545L22.5454 59.6727Z" fill="black"/>
<path d="M16.8365 51.8544C15.0117 51.8544 13.5273 53.3389 13.5273 55.1637C13.5273 56.9884 15.0119 58.4729 16.8365 58.4729C18.6612 58.4729 20.1458 56.9883 20.1458 55.1637C20.1457 53.3388 18.6612 51.8544 16.8365 51.8544ZM16.8365 56.3635C16.1748 56.3635 15.6367 55.8252 15.6367 55.1637C15.6367 54.5021 16.175 53.9637 16.8365 53.9637C17.4981 53.9637 18.0364 54.5021 18.0364 55.1637C18.0363 55.8252 17.4981 56.3635 16.8365 56.3635Z" fill="black"/>
<path d="M55.1635 46.218C50.2308 46.218 46.218 50.231 46.218 55.1636C46.218 56.7802 46.6487 58.3452 47.4688 59.7243L46.2935 62.6627C46.1368 63.0545 46.2286 63.5018 46.5269 63.8002C46.7286 64.0019 46.9983 64.1092 47.2729 64.1092C47.4047 64.1092 47.5374 64.0846 47.6644 64.0337L50.6028 62.8583C51.9819 63.6783 53.5469 64.1092 55.1637 64.1092C60.0962 64.1092 64.1093 60.0962 64.1093 55.1636C64.1091 50.231 60.0962 46.218 55.1635 46.218ZM55.1635 61.9998C53.7812 61.9998 52.4483 61.5876 51.309 60.8079C51.131 60.6859 50.9228 60.6235 50.7132 60.6235C50.5808 60.6235 50.448 60.6484 50.3215 60.699L49.1659 61.1614L49.6281 60.0056C49.7589 59.6789 49.718 59.3085 49.5193 59.0181C48.7395 57.8788 48.3273 56.5459 48.3273 55.1637C48.3273 51.3941 51.3941 48.3275 55.1635 48.3275C58.933 48.3275 61.9997 51.3943 61.9997 55.1637C61.9997 58.9332 58.9331 61.9998 55.1635 61.9998Z" fill="black"/>
<path d="M56.8091 56.8091C56.3697 57.2485 55.7852 57.4907 55.1637 57.4907C54.5421 57.4907 53.9577 57.2485 53.5181 56.8091C53.0785 56.3696 52.8365 55.7852 52.8365 55.1636C52.8365 54.5421 53.0785 53.9576 53.5181 53.518C53.93 53.1061 53.93 52.4383 53.5181 52.0266C53.1062 51.6147 52.4384 51.6147 52.0266 52.0266C51.1886 52.8644 50.7272 53.9786 50.7272 55.1636C50.7272 56.3487 51.1886 57.4627 52.0266 58.3007C52.8645 59.1387 53.9786 59.6002 55.1637 59.6002C56.3487 59.6002 57.4628 59.1387 58.3007 58.3007C58.7126 57.8888 58.7126 57.221 58.3007 56.8092C57.8887 56.3971 57.2209 56.3972 56.8091 56.8091Z" fill="black"/>
</g>
<defs>
<clipPath id="clip0_26_3162">
<rect width="72" height="72" fill="white"/>
</clipPath>
</defs>
</svg>
