<svg width="73" height="72" viewBox="0 0 73 72" fill="none" xmlns="http://www.w3.org/2000/svg">
<g clip-path="url(#clip0_50_1095)">
<path d="M1.15234 7.20693V44.8451C1.15234 48.1927 3.86598 50.9063 7.21352 50.9063H64.9529C68.3005 50.9063 71.0141 48.1927 71.0141 44.8451V7.20693C71.0141 3.89509 68.3291 1.21002 65.0167 1.21002H7.14925C3.83686 1.21002 1.15234 3.89509 1.15234 7.20693Z" fill="#C4E2F2"/>
<path d="M50.1741 58.9939L36.0836 62.2047L21.9913 58.9939L23.9222 50.9069L35.4848 46.6557L48.2438 50.9069L48.8684 53.5249L50.1741 58.9939Z" fill="#2D303B"/>
<path d="M71.0142 44.1321V44.8446C71.0142 48.1927 68.3 50.9069 64.9519 50.9069H7.21359C3.86604 50.9069 1.15295 48.1927 1.15295 44.8446V44.1321H71.0142Z" fill="#3C3F4D"/>
<path d="M50.174 58.9939H28.621L29.9273 53.5249H48.8683L50.174 58.9939Z" fill="#3C3F4D"/>
<path d="M58.4792 63.4967V65.4171H13.6877V63.4967C13.6877 61.0099 15.7037 58.9939 18.1905 58.9939H53.9764C56.4632 58.9939 58.4792 61.0099 58.4792 63.4967Z" fill="#2D303B"/>
<path d="M33.8154 19.1804L33.4419 22.0319L32.2454 31.1413C32.0301 32.7821 30.6332 34.0082 28.9776 34.0082H14.7002C13.0451 34.0082 11.6477 32.7821 11.4323 31.1413L9.86292 19.1804L21.8392 15.973L33.8154 19.1804Z" fill="#1F81A3"/>
<path d="M33.4419 22.0319L32.2455 31.1413C32.0301 32.7821 30.6332 34.0082 28.9776 34.0082H19.2629C17.6072 34.0082 16.2103 32.7821 15.995 31.1413L15.1842 24.968C14.9798 23.4124 16.1905 22.0319 17.7594 22.0319H33.4419Z" fill="#2C92BF"/>
<path d="M35.4551 15.9554V17.7006C35.4551 18.518 34.792 19.1804 33.9752 19.1804H9.70301C8.88617 19.1804 8.22314 18.518 8.22314 17.7006V15.9554C8.22314 15.1386 8.88617 14.4755 9.70301 14.4755H33.9752C34.792 14.4755 35.4551 15.1386 35.4551 15.9554Z" fill="#1F81A3"/>
<path d="M35.455 15.9554V17.7006C35.455 18.518 34.792 19.1804 33.9752 19.1804H15.406C14.5892 19.1804 13.9261 18.518 13.9261 17.7006V15.9554C13.9261 15.1386 14.5892 14.4755 15.406 14.4755H33.9752C34.792 14.4755 35.455 15.1386 35.455 15.9554Z" fill="#2C92BF"/>
<path d="M21.8392 7.7749C20.5005 7.7749 19.415 8.85981 19.415 10.1985V21.7468C19.415 23.0855 20.5005 24.171 21.8392 24.171C23.1779 24.171 24.2628 23.0855 24.2628 21.7468V10.1985C24.2628 8.85981 23.1779 7.7749 21.8392 7.7749Z" fill="#3C3F4D"/>
<path d="M63.8483 35.9874H35.3123L31.6769 70.9773H67.4837L63.8483 35.9874Z" fill="#FF491F"/>
<path d="M47.1084 47.3006H27.273L24.7456 70.9773H49.6358L47.1084 47.3006Z" fill="#FFE14D"/>
<path d="M65.0178 0.140503H7.14926C3.25294 0.140503 0.083374 3.31062 0.083374 7.20804V44.8462C0.083374 48.7777 3.28206 51.9764 7.21353 51.9764H22.5675L21.1475 57.9244H18.1906C15.1182 57.9244 12.6188 60.4238 12.6188 63.4962V65.4166C12.6188 66.0071 13.0973 66.4861 13.6878 66.4861H24.1496L23.6826 70.8636C23.6502 71.1652 23.748 71.4668 23.9507 71.692C24.1534 71.9178 24.4424 72.0469 24.7456 72.0469L67.4842 72.0463C67.7869 72.0463 68.0758 71.9183 68.2785 71.6931C68.4812 71.4684 68.579 71.1679 68.5477 70.8669L67.7325 63.0221C67.6715 62.4349 67.1475 62.0075 66.5586 62.069C65.9714 62.13 65.5446 62.6557 65.6055 63.2429L66.2982 69.9078H50.5971L48.1718 47.1874C48.1141 46.6436 47.6555 46.2316 47.1089 46.2316H35.3222L36.2758 37.0575H40.812V39.4091C40.812 39.9996 41.2911 40.4786 41.8816 40.4786C42.4721 40.4786 42.9511 39.9996 42.9511 39.4091V37.0575H56.2094V39.4091C56.2094 39.9996 56.6879 40.4786 57.279 40.4786C57.8695 40.4786 58.3479 39.9996 58.3479 39.4091V37.0575H62.8842L65.2293 59.6246C65.2864 60.1744 65.7506 60.5831 66.2916 60.5831C66.3284 60.5831 66.3658 60.5815 66.4032 60.5776C66.9909 60.5167 67.4172 59.991 67.3562 59.4032L66.5652 51.7907C69.7342 51.0524 72.0831 48.1905 72.0831 44.8462V7.20804C72.0837 3.31062 68.9135 0.140503 65.0178 0.140503ZM24.7659 51.9764H25.6981L25.0636 57.9244H23.3459L24.7659 51.9764ZM14.7573 64.3476V63.4962C14.7573 61.6032 16.2971 60.0629 18.1906 60.0629H24.8351L24.3781 64.3476H14.7573ZM48.4459 69.9078H25.9354L28.2343 48.3701H46.147L48.4459 69.9078ZM42.9511 34.9184V32.3525C42.9511 28.6974 45.9246 25.7234 49.5803 25.7234C53.2354 25.7234 56.2094 28.6974 56.2094 32.3525V34.9184H42.9511ZM58.3485 34.9184V32.3525C58.3485 27.518 54.4148 23.5849 49.5803 23.5849C44.7457 23.5849 40.8126 27.518 40.8126 32.3525V34.9184H35.3123C34.7646 34.9184 34.3054 35.3326 34.2488 35.8775L33.5017 43.0626H15.0721C14.4816 43.0626 14.0031 43.5411 14.0031 44.1316C14.0031 44.7221 14.4816 45.2011 15.0721 45.2011H33.2792L33.1721 46.2316H27.273C26.7264 46.2316 26.2677 46.6436 26.2095 47.1874L25.9266 49.8379H7.21353C4.58119 49.8379 2.41908 47.7884 2.23615 45.2017H11.5076C12.0981 45.2017 12.5765 44.7232 12.5765 44.1327C12.5765 43.5422 12.0981 43.0632 11.5076 43.0632H2.22187V7.20804C2.22187 4.49001 4.43233 2.279 7.14926 2.279H65.0178C67.7347 2.279 69.9452 4.49001 69.9452 7.20804V43.0626H65.6588L64.9123 35.8775C64.8557 35.3326 64.3965 34.9184 63.8488 34.9184H58.3485ZM66.3422 49.6401L65.8808 45.2011H69.9309C69.7809 47.2973 68.317 49.065 66.3422 49.6401Z" fill="black"/>
<path d="M33.9753 13.4065H25.3323V10.1985C25.3323 8.27259 23.7651 6.70538 21.8392 6.70538C19.9133 6.70538 18.3461 8.27259 18.3461 10.1985V13.4065H9.70307C8.29737 13.4065 7.15369 14.5502 7.15369 15.9554V17.7005C7.15369 18.8283 7.89087 19.7858 8.90766 20.1214L10.3721 31.2808C10.6561 33.4457 12.5167 35.0777 14.6997 35.0777H28.9787C31.1617 35.0777 33.0216 33.4457 33.3062 31.2808L34.7707 20.1214C35.7875 19.7863 36.5247 18.8283 36.5247 17.7005V15.9554C36.5241 14.5502 35.3804 13.4065 33.9753 13.4065ZM33.9753 15.545C34.2016 15.545 34.3856 15.729 34.3856 15.9554V17.7005C34.3856 17.9269 34.2016 18.1114 33.9753 18.1114H25.3323V15.545H33.9753ZM20.4845 10.1985C20.4845 9.45143 21.0921 8.84388 21.8392 8.84388C22.5857 8.84388 23.1932 9.45143 23.1932 10.1985V21.7468C23.1932 22.4939 22.5857 23.1014 21.8392 23.1014C21.0921 23.1014 20.4845 22.4939 20.4845 21.7468V10.1985ZM9.29218 15.9554C9.29218 15.729 9.47675 15.545 9.70307 15.545H18.3461V18.1114H9.70307C9.47675 18.1114 9.29218 17.9269 9.29218 17.7005V15.9554ZM31.1853 31.0028C31.0408 32.1064 30.0916 32.9392 28.9787 32.9392H14.6997C13.5862 32.9392 12.6375 32.1064 12.4925 31.0028L11.0819 20.2499H18.3461V21.7468C18.3461 23.6733 19.9133 25.2399 21.8392 25.2399C23.7656 25.2399 25.3323 23.6733 25.3323 21.7468V20.2499H32.597L31.1853 31.0028Z" fill="black"/>
<path d="M33.6622 56.216V51.6182C33.6622 51.0277 33.1837 50.5493 32.5932 50.5493C32.0027 50.5493 31.5237 51.0277 31.5237 51.6182V56.216C31.5237 59.3411 34.0659 61.8833 37.191 61.8833C40.3155 61.8833 42.8578 59.3411 42.8578 56.216V51.6182C42.8578 51.0277 42.3793 50.5493 41.7888 50.5493C41.1983 50.5493 40.7193 51.0277 40.7193 51.6182V56.216C40.7193 58.1617 39.1367 59.7448 37.191 59.7448C35.2453 59.7448 33.6622 58.1617 33.6622 56.216Z" fill="black"/>
<path d="M46.1916 11.0027H41.6289C41.0384 11.0027 40.5599 11.4817 40.5599 12.0722C40.5599 12.6627 41.0384 13.1412 41.6289 13.1412H46.1916C46.7821 13.1412 47.2605 12.6627 47.2605 12.0722C47.2605 11.4817 46.7821 11.0027 46.1916 11.0027Z" fill="black"/>
<path d="M50.8964 13.1412H65.7242C66.3147 13.1412 66.7932 12.6627 66.7932 12.0722C66.7932 11.4817 66.3147 11.0027 65.7242 11.0027H50.8964C50.3054 11.0027 49.8269 11.4817 49.8269 12.0722C49.8269 12.6627 50.3054 13.1412 50.8964 13.1412Z" fill="black"/>
<path d="M46.1916 15.9933H41.6289C41.0384 15.9933 40.5599 16.4717 40.5599 17.0623C40.5599 17.6528 41.0384 18.1318 41.6289 18.1318H46.1916C46.7821 18.1318 47.2605 17.6528 47.2605 17.0623C47.2605 16.4717 46.7821 15.9933 46.1916 15.9933Z" fill="black"/>
<path d="M66.7932 17.0623C66.7932 16.4717 66.3147 15.9933 65.7242 15.9933H50.8964C50.3054 15.9933 49.8269 16.4717 49.8269 17.0623C49.8269 17.6528 50.3054 18.1318 50.8964 18.1318H65.7242C66.3147 18.1318 66.7932 17.6528 66.7932 17.0623Z" fill="black"/>
</g>
<defs>
<clipPath id="clip0_50_1095">
<rect width="72" height="72" fill="white" transform="translate(0.083374)"/>
</clipPath>
</defs>
</svg>
