<svg width="55" height="55" viewBox="0 0 55 55" fill="none" xmlns="http://www.w3.org/2000/svg">
<path d="M27.8204 54.5898C42.6755 54.5898 54.7179 42.5474 54.7179 27.6924C54.7179 12.8373 42.6755 0.794922 27.8204 0.794922C12.9654 0.794922 0.922974 12.8373 0.922974 27.6924C0.922974 42.5474 12.9654 54.5898 27.8204 54.5898Z" fill="#232B58"/>
<path d="M14.9177 35.7987C17.2611 37.3013 20.044 38.1778 23.0333 38.1778C32.8629 38.1778 38.4162 29.8756 38.0812 22.4292C39.1152 21.6838 40.0133 20.7517 40.7231 19.6887C39.7728 20.1099 38.7529 20.3943 37.6823 20.522C38.7744 19.8677 39.6144 18.8304 40.0091 17.5932C38.9859 18.2002 37.8531 18.6405 36.6483 18.8785C35.6822 17.8494 34.3066 17.2068 32.7833 17.2068C29.3669 17.2068 26.8552 20.396 27.6264 23.707C23.2265 23.4865 19.325 21.3786 16.7146 18.1753C15.3274 20.5552 15.9949 23.6689 18.3532 25.2444C17.485 25.2171 16.6674 24.9783 15.9543 24.5819C15.897 27.0356 17.655 29.3292 20.2007 29.8408C19.4552 30.044 18.6393 30.0896 17.8109 29.9312C18.4834 32.0349 20.4387 33.5648 22.7555 33.6079C20.5299 35.3518 17.7263 36.1304 14.9177 35.7987Z" fill="white"/>
</svg>
