<svg width="54" height="55" viewBox="0 0 54 55" fill="none" xmlns="http://www.w3.org/2000/svg">
<path d="M26.9992 54.5896C41.8542 54.5896 53.8966 42.5472 53.8966 27.6923C53.8966 12.8373 41.8542 0.794922 26.9992 0.794922C12.1443 0.794922 0.101929 12.8373 0.101929 27.6923C0.101929 42.5472 12.1443 54.5896 26.9992 54.5896Z" fill="#232B58"/>
<path d="M34.8179 23.3014C28.2356 23.3014 28.2273 29.8589 28.2273 29.8929C28.2273 29.8929 27.7762 36.4587 34.8179 36.4587C34.8179 36.4587 40.6905 36.7929 40.6905 31.8897H37.6746C37.6746 31.8897 37.7741 33.7355 34.9183 33.7355C34.9183 33.7355 31.9024 33.9362 31.9024 30.7537H40.7908C40.7908 30.7537 41.7685 23.3014 34.8179 23.3014ZM31.8692 28.4551C31.8692 28.4551 32.2366 25.8156 34.8851 25.8156C37.5419 25.8156 37.4996 28.4551 37.4996 28.4551H31.8692ZM24.3349 26.7684C24.3349 26.7684 26.9495 26.576 26.9495 23.5021C26.9495 20.4365 24.8109 18.9331 22.096 18.9331H13.1661V36.0988H22.096C22.096 36.0988 27.5506 36.2663 27.5506 31.0281C27.5506 31.0281 27.7853 26.7684 24.3349 26.7684ZM17.1008 21.9813H22.096C22.096 21.9813 23.3075 21.9813 23.3075 23.7691C23.3075 25.5569 22.5977 25.8156 21.7867 25.8156H17.1008V21.9813ZM21.8456 33.0498H17.1008V28.4551H22.096C22.096 28.4551 23.9087 28.4385 23.9004 30.8191C23.9004 32.8242 22.5562 33.0332 21.8456 33.0498ZM31.1262 19.9439V22.0576H38.2103V19.9439H31.1262Z" fill="white"/>
</svg>
