<svg width="55" height="54" viewBox="0 0 55 54" fill="none" xmlns="http://www.w3.org/2000/svg">
<path d="M27.1794 53.7949C42.0345 53.7949 54.0769 41.7525 54.0769 26.8974C54.0769 12.0424 42.0345 0 27.1794 0C12.3244 0 0.281982 12.0424 0.281982 26.8974C0.281982 41.7525 12.3244 53.7949 27.1794 53.7949Z" fill="#232B58"/>
<path d="M34.5562 17.9683H19.8027C16.9079 17.9683 14.562 20.3149 14.562 23.2089V30.584C14.562 33.4788 16.9087 35.8247 19.8027 35.8247H34.5554C37.4502 35.8247 39.796 33.478 39.796 30.584V23.2089C39.7969 20.3149 37.4502 17.9683 34.5562 17.9683ZM31.0113 27.2555L24.1105 30.5467C23.9264 30.6346 23.7141 30.5003 23.7141 30.2963V23.5083C23.7141 23.3018 23.9322 23.1675 24.1163 23.2612L31.0171 26.758C31.2227 26.8625 31.2194 27.1568 31.0113 27.2555Z" fill="white"/>
</svg>
