<svg width="55" height="54" viewBox="0 0 55 54" fill="none" xmlns="http://www.w3.org/2000/svg">
<path d="M27.5898 53.7949C42.4449 53.7949 54.4873 41.7525 54.4873 26.8975C54.4873 12.0424 42.4449 0 27.5898 0C12.7348 0 0.692383 12.0424 0.692383 26.8975C0.692383 41.7525 12.7348 53.7949 27.5898 53.7949Z" fill="#232B58"/>
<path d="M15.9974 26.9066C15.9974 33.304 21.1833 38.4908 27.5816 38.4908C28.3237 38.4908 29.0493 38.4186 29.7525 38.2843C30.7716 38.9004 31.9657 39.2553 33.2443 39.2553C36.9775 39.2537 40.0041 36.227 40.0041 32.493C40.0041 31.1837 39.631 29.9631 38.9875 28.9274C39.1019 28.2714 39.1658 27.5956 39.1658 26.9066C39.1658 20.5083 33.979 15.3223 27.5816 15.3223C26.8527 15.3223 26.1404 15.3928 25.448 15.5213C24.4247 14.8978 23.2232 14.5396 21.9379 14.5396C18.2039 14.5396 15.1772 17.5662 15.1772 21.3002C15.1772 22.6021 15.5463 23.8169 16.1831 24.8484C16.0629 25.5159 15.9974 26.2034 15.9974 26.9066ZM27.706 18.6757C31.4424 18.8946 33.6299 20.5381 33.8422 22.0722C33.9458 23.0756 33.2792 23.855 32.1224 23.855C30.4324 23.855 30.26 21.602 27.3502 21.602C26.0376 21.602 24.9297 22.1476 24.9297 23.3309C24.9297 25.8045 34.2535 24.3683 34.2535 29.8146C34.2535 32.9541 31.7401 35.0105 27.9896 35.0105C24.6909 35.0105 21.3749 33.5154 21.3914 30.9407C21.3964 30.1629 21.9761 29.4506 22.7472 29.4506C24.6901 29.4506 24.6727 32.3371 27.7657 32.3371C29.9349 32.3371 30.6762 31.153 30.6762 30.3279C30.6762 27.3477 21.2969 29.1753 21.2969 23.5706C21.2977 20.5381 23.7895 18.446 27.706 18.6757Z" fill="white"/>
</svg>
