<svg width="55" height="55" viewBox="0 0 55 55" fill="none" xmlns="http://www.w3.org/2000/svg">
<path d="M27.6153 54.5898C42.4704 54.5898 54.5128 42.5474 54.5128 27.6924C54.5128 12.8373 42.4704 0.794922 27.6153 0.794922C12.7603 0.794922 0.717896 12.8373 0.717896 27.6924C0.717896 42.5474 12.7603 54.5898 27.6153 54.5898Z" fill="#232B58"/>
<path fill-rule="evenodd" clip-rule="evenodd" d="M40.4326 27.0281C40.2576 20.1115 34.5601 14.5591 27.5473 14.5591C20.6192 14.5591 14.9697 19.9847 14.6687 26.7926C14.6629 26.9791 14.6571 27.1666 14.6571 27.354C14.6571 29.7745 15.3329 32.0316 16.5038 33.9629L14.1803 40.8255L21.3199 38.5559C23.1666 39.57 25.291 40.1497 27.5481 40.1497C34.6703 40.1497 40.4392 34.4222 40.4392 27.3548C40.4392 27.2445 40.4392 27.1367 40.4326 27.0281ZM27.5473 38.1081C25.3449 38.1081 23.2984 37.4563 21.5844 36.3278L17.42 37.6554L18.7717 33.6602C17.474 31.8857 16.7077 29.7073 16.7077 27.3531C16.7077 27.0032 16.726 26.6533 16.7616 26.3091C17.2932 20.8653 21.9277 16.5981 27.5465 16.5981C33.2374 16.5981 37.9151 20.9739 38.3496 26.514C38.3736 26.7917 38.3861 27.0695 38.3861 27.3531C38.3869 33.2862 33.5227 38.1081 27.5473 38.1081Z" fill="white"/>
<path fill-rule="evenodd" clip-rule="evenodd" d="M33.4564 29.9371C33.1363 29.7804 31.5857 29.02 31.2955 28.9172C31.0052 28.8085 30.7946 28.7604 30.5832 29.0739C30.3717 29.3873 29.7622 30.0938 29.5815 30.2986C29.3949 30.5101 29.2133 30.5341 28.894 30.3774C28.5798 30.2207 27.5598 29.8948 26.3533 28.8201C25.4179 27.9934 24.7778 26.9677 24.597 26.6534C24.4162 26.3399 24.5788 26.1708 24.7363 26.0141C24.8814 25.8689 25.0506 25.6459 25.2131 25.4651C25.2554 25.4104 25.2919 25.3623 25.3276 25.3142C25.3997 25.1998 25.4544 25.0911 25.5266 24.9402C25.6352 24.7296 25.5813 24.548 25.5025 24.3913C25.4238 24.2346 24.7902 22.6897 24.5249 22.0612C24.2653 21.4334 24 21.5421 23.8126 21.5421C23.631 21.5421 23.4204 21.5122 23.2089 21.5122C22.9975 21.5122 22.6533 21.591 22.3639 21.9044C22.0745 22.2187 21.2594 22.9791 21.2594 24.524C21.2594 24.8863 21.3257 25.2479 21.4219 25.5928C21.742 26.6973 22.4303 27.6087 22.5505 27.7654C22.7072 27.9702 24.7355 31.2415 27.9462 32.5027C31.1628 33.7524 31.1628 33.3353 31.7424 33.2814C32.322 33.2324 33.6131 32.5268 33.8727 31.7904C34.1389 31.0599 34.1389 30.4322 34.0601 30.2995C33.9813 30.1726 33.7698 30.0938 33.4564 29.9371Z" fill="white"/>
</svg>
