<svg width="55" height="54" viewBox="0 0 55 54" fill="none" xmlns="http://www.w3.org/2000/svg">
<path d="M27.4103 53.7949C42.2653 53.7949 54.3077 41.7525 54.3077 26.8974C54.3077 12.0424 42.2653 0 27.4103 0C12.5552 0 0.512817 12.0424 0.512817 26.8974C0.512817 41.7525 12.5552 53.7949 27.4103 53.7949Z" fill="#232B58"/>
<path d="M35.7862 16.6715C32.5091 16.5662 30.2893 18.4153 29.1267 22.224C29.7271 21.9661 30.3108 21.8359 30.8772 21.8359C32.0796 21.8359 32.6103 22.5134 32.4685 23.8633C32.398 24.6801 31.8673 25.87 30.8772 27.4348C29.8855 28.9987 29.1425 29.7798 28.6474 29.7798C28.0089 29.7798 27.426 28.5766 26.8961 26.1644C26.717 25.4563 26.3994 23.6494 25.94 20.7438C25.5146 18.0497 24.3828 16.7917 22.5427 16.9692C21.7632 17.0405 20.5949 17.7486 19.0384 19.0928C17.9057 20.1194 16.7547 21.146 15.588 22.1717L16.7008 23.6054C17.7606 22.8633 18.38 22.4901 18.5558 22.4901C19.3684 22.4901 20.1264 23.7655 20.8337 26.3095C21.4705 28.643 22.1065 30.9756 22.7425 33.3106C23.6945 35.8564 24.8612 37.1284 26.2394 37.1284C28.4642 37.1284 31.184 35.0387 34.3989 30.8586C37.5076 26.8568 39.1155 23.7041 39.2208 21.4014C39.361 18.32 38.2166 16.7445 35.7862 16.6715Z" fill="white"/>
</svg>
