<svg width="55" height="55" viewBox="0 0 55 55" fill="none" xmlns="http://www.w3.org/2000/svg">
<path d="M27.5913 54.589C42.4461 54.589 54.4883 42.5468 54.4883 27.692C54.4883 12.8371 42.4461 0.794922 27.5913 0.794922C12.7364 0.794922 0.694214 12.8371 0.694214 27.692C0.694214 42.5468 12.7364 54.589 27.5913 54.589Z" fill="#232B58"/>
<path d="M27.5955 14.8862C20.5189 14.8862 14.7823 20.6228 14.7823 27.7002C14.7823 34.7759 20.5189 40.5133 27.5955 40.5133C34.6729 40.5133 40.4094 34.7767 40.4094 27.7002C40.4086 20.6228 34.672 14.8862 27.5955 14.8862ZM27.5955 17.1143C30.0251 17.1143 32.2598 17.946 34.0485 19.3275C32.7623 20.9868 30.9861 22.2978 28.724 23.2564C27.6394 21.2696 26.3997 19.3317 25 17.451C25.8309 17.2387 26.6991 17.1143 27.5955 17.1143ZM22.8208 18.2653C24.2429 20.1261 25.5017 22.044 26.5971 24.0118C24.0016 24.7755 20.9045 25.1686 17.3231 25.1926C18.0636 22.1651 20.1018 19.6484 22.8208 18.2653ZM17.0105 27.6985C17.0105 27.6073 17.0229 27.5177 17.0245 27.4265C21.1333 27.4199 24.6783 26.9489 27.6477 26.0144C27.8965 26.521 28.1353 27.031 28.3633 27.5443C24.7554 28.672 21.7818 30.9839 19.4616 34.4633C17.9334 32.6274 17.0105 30.2699 17.0105 27.6985ZM27.5955 38.2843C25.1468 38.2843 22.8954 37.441 21.1002 36.0396C23.2023 32.741 25.8873 30.595 29.2124 29.6041C30.2025 32.1879 30.9314 34.8464 31.395 37.5696C30.2125 38.0248 28.9355 38.2843 27.5955 38.2843ZM33.4705 36.4974C33.0028 33.9857 32.317 31.5295 31.4206 29.1339C33.4232 28.8511 35.6281 28.9241 38.0395 29.3437C37.5727 32.3181 35.8752 34.8879 33.4705 36.4974ZM30.5666 27.0244C30.3062 26.4232 30.0359 25.8236 29.7473 25.2307C32.2134 24.1627 34.1952 22.7124 35.6721 20.8724C37.1124 22.5748 38.0171 24.7365 38.1506 27.1023C35.4009 26.652 32.8726 26.628 30.5666 27.0244Z" fill="white"/>
</svg>
