<?xml version="1.0" standalone="no"?>
<!DOCTYPE svg PUBLIC "-//W3C//DTD SVG 20010904//EN"
 "http://www.w3.org/TR/2001/REC-SVG-20010904/DTD/svg10.dtd">
<svg version="1.0" xmlns="http://www.w3.org/2000/svg"
 width="260.000000pt" height="260.000000pt" viewBox="0 0 260.000000 260.000000"
 preserveAspectRatio="xMidYMid meet">
<metadata>
Created by potrace 1.14, written by Peter Selinger 2001-2017
</metadata>
<g transform="translate(0.000000,260.000000) scale(0.100000,-0.100000)"
fill="#000000" stroke="none">
<path d="M1132 2590 c-549 -78 -984 -480 -1103 -1020 -31 -138 -33 -389 -5
-520 55 -253 163 -462 333 -641 188 -197 409 -322 673 -380 138 -31 389 -33
520 -5 253 55 462 163 641 333 197 188 322 409 380 673 31 138 33 389 5 520
-55 253 -163 462 -333 641 -184 193 -399 317 -653 375 -118 28 -348 40 -458
24z m705 -803 c211 -72 344 -254 345 -474 0 -144 -53 -265 -160 -364 -124
-115 -291 -162 -454 -128 -62 13 -162 57 -198 87 l-25 21 44 44 43 45 44 -28
c65 -41 121 -53 221 -48 112 6 179 36 252 113 77 81 105 149 105 255 0 74 -4
93 -31 151 -43 92 -91 142 -181 187 -70 34 -83 37 -161 37 -73 0 -95 -4 -145
-28 -75 -35 -164 -107 -256 -208 -174 -191 -374 -308 -527 -309 l-33 0 0 64 0
63 60 6 c70 6 173 51 239 104 25 20 111 101 191 179 215 209 293 253 462 253
75 1 111 -4 165 -22z"/>
</g>
</svg>
