<svg width="73" height="72" viewBox="0 0 73 72" fill="none" xmlns="http://www.w3.org/2000/svg">
<path d="M4.04172 19.125H62.5417V66.375C62.5417 66.9717 62.3047 67.544 61.8827 67.966C61.4608 68.3879 60.8885 68.625 60.2917 68.625H6.29172C5.69498 68.625 5.12268 68.3879 4.70073 67.966C4.27877 67.544 4.04172 66.9717 4.04172 66.375V19.125Z" fill="#FFCD00"/>
<path d="M58.0417 19.125V43.875C58.0417 49.2456 55.9082 54.3963 52.1106 58.1939C48.313 61.9915 43.1623 64.125 37.7917 64.125H4.04172V66.375C4.04172 66.9717 4.27877 67.544 4.70073 67.966C5.12268 68.3879 5.69498 68.625 6.29172 68.625H60.2917C60.8885 68.625 61.4608 68.3879 61.8827 67.966C62.3047 67.544 62.5417 66.9717 62.5417 66.375V19.125H58.0417Z" fill="#EBBF00"/>
<path d="M60.2917 10.125H6.29172C5.69498 10.125 5.12268 10.3621 4.70073 10.784C4.27877 11.206 4.04172 11.7783 4.04172 12.375V19.125H62.5417V12.375C62.5417 11.7783 62.3047 11.206 61.8827 10.784C61.4608 10.3621 60.8885 10.125 60.2917 10.125Z" fill="#006DF0"/>
<path d="M64.7917 43.7152L62.5417 43.3181L51.2681 41.3291L53.6553 54.8516L56.8368 51.6701L64.7917 59.625L69.5651 54.8516L61.6102 46.8967L64.7917 43.7152Z" fill="#5EAC24"/>
<path d="M31.0417 3.375H69.2917V32.625H31.0417V3.375Z" fill="#FF5023"/>
<path d="M67.0417 3.375V21.375C67.0417 23.7619 66.0935 26.0511 64.4057 27.739C62.7178 29.4268 60.4287 30.375 58.0417 30.375H31.0417V32.625H69.2917V3.375H67.0417Z" fill="#E54820"/>
<path d="M10.7917 37.125H24.2917V46.125H10.7917V37.125Z" fill="#ED1C24"/>
<path d="M10.7917 50.625H24.2917V61.875H10.7917V50.625Z" fill="#ED1C24"/>
<path d="M59.1667 3.375H69.2917V13.5H59.1667V3.375Z" fill="#D80027"/>
<path d="M70.3605 54.0562L63.2055 46.9012L65.5905 44.505C65.7357 44.3612 65.838 44.1797 65.8857 43.9809C65.9334 43.7822 65.9246 43.5741 65.8605 43.38C65.7996 43.1825 65.6855 43.0056 65.5307 42.8686C65.3759 42.7317 65.1864 42.6401 64.983 42.6037L63.6667 42.3787V33.75H69.2917C69.5901 33.75 69.8762 33.6315 70.0872 33.4205C70.2982 33.2095 70.4167 32.9234 70.4167 32.625V3.375C70.4167 3.07663 70.2982 2.79048 70.0872 2.5795C69.8762 2.36853 69.5901 2.25 69.2917 2.25H31.0417C30.7433 2.25 30.4572 2.36853 30.2462 2.5795C30.0352 2.79048 29.9167 3.07663 29.9167 3.375V9H6.29172C5.39743 9.00267 4.54054 9.35911 3.90818 9.99146C3.27583 10.6238 2.91939 11.4807 2.91672 12.375V66.375C2.91939 67.2693 3.27583 68.1262 3.90818 68.7585C4.54054 69.3909 5.39743 69.7473 6.29172 69.75H60.2917C61.186 69.7473 62.0429 69.3909 62.6753 68.7585C63.3076 68.1262 63.664 67.2693 63.6667 66.375V60.0863L63.993 60.4237C64.2062 60.6329 64.493 60.7501 64.7917 60.7501C65.0904 60.7501 65.3772 60.6329 65.5905 60.4237L70.3605 55.6425C70.4651 55.54 70.5479 55.4174 70.6039 55.282C70.66 55.1467 70.6882 55.0015 70.6867 54.855C70.6882 54.7069 70.6601 54.5599 70.6041 54.4228C70.5481 54.2856 70.4652 54.161 70.3605 54.0562ZM60.2917 4.5H68.1667V12.375H60.2917V4.5ZM32.1667 4.5H58.0417V13.5C58.0417 13.7984 58.1602 14.0845 58.3712 14.2955C58.5822 14.5065 58.8683 14.625 59.1667 14.625H68.1667V31.5H32.1667V4.5ZM5.16672 12.375C5.16672 12.0766 5.28524 11.7905 5.49622 11.5795C5.7072 11.3685 5.99335 11.25 6.29172 11.25H29.9167V18H5.16672V12.375ZM61.4167 66.375C61.4167 66.6734 61.2982 66.9595 61.0872 67.1705C60.8762 67.3815 60.5901 67.5 60.2917 67.5H6.29172C5.99335 67.5 5.7072 67.3815 5.49622 67.1705C5.28524 66.9595 5.16672 66.6734 5.16672 66.375V20.25H29.9167V32.625C29.9167 32.9234 30.0352 33.2095 30.2462 33.4205C30.4572 33.6315 30.7433 33.75 31.0417 33.75H61.4167V41.9738L51.4605 40.2188C51.2823 40.1871 51.0991 40.1993 50.9266 40.2542C50.7542 40.309 50.5976 40.405 50.4705 40.5337C50.3439 40.6625 50.2495 40.8192 50.1948 40.9911C50.14 41.1631 50.1266 41.3456 50.1555 41.5238L52.5517 55.0462C52.5839 55.2496 52.6727 55.4398 52.808 55.595C52.9433 55.7502 53.1196 55.8641 53.3167 55.9237C53.5137 55.9856 53.7239 55.9921 53.9243 55.9425C54.1247 55.8929 54.3076 55.7891 54.453 55.6425L56.838 53.2575L61.4167 57.8363V66.375ZM64.7917 58.0387L63.3405 56.5763L57.6367 50.8725C57.4239 50.6627 57.1368 50.5454 56.838 50.5462C56.6898 50.5448 56.5429 50.5729 56.4057 50.6289C56.2686 50.6849 56.144 50.7677 56.0392 50.8725L54.3855 52.5262L52.653 42.7163L62.463 44.4487L60.8092 46.1025C60.602 46.317 60.4852 46.603 60.483 46.9012C60.4853 47.1962 60.6023 47.4786 60.8092 47.6888L67.9755 54.855L64.7917 58.0387Z" fill="#231F20"/>
<path d="M9.66672 13.5H8.54172C8.24335 13.5 7.9572 13.6185 7.74622 13.8295C7.53524 14.0405 7.41672 14.3266 7.41672 14.625C7.41672 14.9234 7.53524 15.2095 7.74622 15.4205C7.9572 15.6315 8.24335 15.75 8.54172 15.75H9.66672C9.96509 15.75 10.2512 15.6315 10.4622 15.4205C10.6732 15.2095 10.7917 14.9234 10.7917 14.625C10.7917 14.3266 10.6732 14.0405 10.4622 13.8295C10.2512 13.6185 9.96509 13.5 9.66672 13.5Z" fill="#231F20"/>
<path d="M15.2917 13.5H14.1667C13.8683 13.5 13.5822 13.6185 13.3712 13.8295C13.1602 14.0405 13.0417 14.3266 13.0417 14.625C13.0417 14.9234 13.1602 15.2095 13.3712 15.4205C13.5822 15.6315 13.8683 15.75 14.1667 15.75H15.2917C15.5901 15.75 15.8762 15.6315 16.0872 15.4205C16.2982 15.2095 16.4167 14.9234 16.4167 14.625C16.4167 14.3266 16.2982 14.0405 16.0872 13.8295C15.8762 13.6185 15.5901 13.5 15.2917 13.5Z" fill="#231F20"/>
<path d="M20.9167 13.5H19.7917C19.4933 13.5 19.2072 13.6185 18.9962 13.8295C18.7852 14.0405 18.6667 14.3266 18.6667 14.625C18.6667 14.9234 18.7852 15.2095 18.9962 15.4205C19.2072 15.6315 19.4933 15.75 19.7917 15.75H20.9167C21.2151 15.75 21.5012 15.6315 21.7122 15.4205C21.9232 15.2095 22.0417 14.9234 22.0417 14.625C22.0417 14.3266 21.9232 14.0405 21.7122 13.8295C21.5012 13.6185 21.2151 13.5 20.9167 13.5Z" fill="#231F20"/>
<path d="M37.5183 26.9662C37.8078 27.0387 38.1141 26.9933 38.37 26.8399C38.626 26.6865 38.8105 26.4378 38.883 26.1484L39.5141 23.625H42.8193L43.4505 26.1484C43.5114 26.3917 43.6519 26.6076 43.8496 26.7619C44.0473 26.9162 44.2909 27 44.5417 27C44.6343 27.0004 44.7265 26.989 44.8162 26.9662C45.1056 26.8937 45.3544 26.7092 45.5078 26.4533C45.6611 26.1974 45.7066 25.891 45.6341 25.6016L43.3841 16.6016C43.3231 16.3582 43.1825 16.1421 42.9845 15.9878C42.7866 15.8334 42.5427 15.7498 42.2917 15.75H40.0417C39.7909 15.75 39.5473 15.8338 39.3496 15.9881C39.1519 16.1424 39.0114 16.3583 38.9505 16.6016L36.7005 25.6016C36.628 25.891 36.6734 26.1974 36.8268 26.4533C36.9802 26.7092 37.2289 26.8937 37.5183 26.9662ZM41.4131 18L42.2568 21.375H40.0766L40.9203 18H41.4131Z" fill="#231F20"/>
<path d="M47.9167 27H50.1667C51.3602 27 52.5048 26.5259 53.3487 25.682C54.1926 24.8381 54.6667 23.6935 54.6667 22.5V20.25C54.6667 19.0565 54.1926 17.9119 53.3487 17.068C52.5048 16.2241 51.3602 15.75 50.1667 15.75H47.9167C47.6184 15.75 47.3322 15.8685 47.1213 16.0795C46.9103 16.2905 46.7917 16.5766 46.7917 16.875V25.875C46.7917 26.1734 46.9103 26.4595 47.1213 26.6705C47.3322 26.8815 47.6184 27 47.9167 27ZM49.0417 18H50.1667C50.7635 18 51.3358 18.2371 51.7577 18.659C52.1797 19.081 52.4167 19.6533 52.4167 20.25V22.5C52.4167 23.0967 52.1797 23.669 51.7577 24.091C51.3358 24.5129 50.7635 24.75 50.1667 24.75H49.0417V18Z" fill="#231F20"/>
<path d="M56.9167 24.75C56.6184 24.75 56.3322 24.8685 56.1213 25.0795C55.9103 25.2905 55.7917 25.5766 55.7917 25.875C55.7917 26.1734 55.9103 26.4595 56.1213 26.6705C56.3322 26.8815 56.6184 27 56.9167 27H61.4167C62.0135 27 62.5858 26.7629 63.0077 26.341C63.4297 25.919 63.6667 25.3467 63.6667 24.75V22.5C63.6667 21.9033 63.4297 21.331 63.0077 20.909C62.5858 20.4871 62.0135 20.25 61.4167 20.25H58.0417V18H62.5417C62.8401 18 63.1263 17.8815 63.3372 17.6705C63.5482 17.4595 63.6667 17.1734 63.6667 16.875C63.6667 16.5766 63.5482 16.2905 63.3372 16.0795C63.1263 15.8685 62.8401 15.75 62.5417 15.75H58.0417C57.445 15.75 56.8727 15.9871 56.4508 16.409C56.0288 16.831 55.7917 17.4033 55.7917 18V20.25C55.7917 20.8467 56.0288 21.419 56.4508 21.841C56.8727 22.2629 57.445 22.5 58.0417 22.5H61.4167V24.75H56.9167Z" fill="#231F20"/>
<path d="M62.6385 8.43753L61.7463 9.32966C61.6389 9.43343 61.5532 9.55757 61.4942 9.69483C61.4353 9.83208 61.4042 9.9797 61.4029 10.1291C61.4016 10.2785 61.4301 10.4266 61.4867 10.5649C61.5432 10.7031 61.6268 10.8287 61.7324 10.9343C61.838 11.04 61.9636 11.1235 62.1019 11.1801C62.2402 11.2366 62.3883 11.2651 62.5377 11.2638C62.687 11.2625 62.8347 11.2315 62.9719 11.1725C63.1092 11.1136 63.2333 11.0279 63.3371 10.9204L64.2292 10.0283L65.1213 10.9204C65.3335 11.1253 65.6177 11.2387 65.9127 11.2362C66.2076 11.2336 66.4898 11.1153 66.6984 10.9067C66.907 10.6981 67.0253 10.416 67.0278 10.121C67.0304 9.82601 66.917 9.54183 66.7121 9.32966L65.82 8.43753L66.7121 7.54541C66.8195 7.44163 66.9052 7.31749 66.9642 7.18024C67.0232 7.04298 67.0542 6.89536 67.0555 6.74598C67.0568 6.59661 67.0283 6.44847 66.9718 6.31021C66.9152 6.17195 66.8317 6.04634 66.726 5.94071C66.6204 5.83508 66.4948 5.75155 66.3565 5.69498C66.2183 5.63841 66.0701 5.60995 65.9208 5.61125C65.7714 5.61255 65.6238 5.64358 65.4865 5.70254C65.3493 5.7615 65.2251 5.84721 65.1213 5.95466L64.2292 6.84678L63.3371 5.95466C63.1249 5.74973 62.8407 5.63633 62.5458 5.6389C62.2508 5.64146 61.9686 5.75978 61.76 5.96836C61.5515 6.17694 61.4331 6.45911 61.4306 6.75408C61.428 7.04905 61.5414 7.33323 61.7463 7.54541L62.6385 8.43753Z" fill="#231F20"/>
<path d="M24.2917 36H10.7917C10.4933 36 10.2072 36.1185 9.99622 36.3295C9.78524 36.5405 9.66672 36.8266 9.66672 37.125V46.125C9.66672 46.4234 9.78524 46.7095 9.99622 46.9205C10.2072 47.1315 10.4933 47.25 10.7917 47.25H24.2917C24.5901 47.25 24.8762 47.1315 25.0872 46.9205C25.2982 46.7095 25.4167 46.4234 25.4167 46.125V37.125C25.4167 36.8266 25.2982 36.5405 25.0872 36.3295C24.8762 36.1185 24.5901 36 24.2917 36ZM23.1667 45H11.9167V38.25H23.1667V45Z" fill="#231F20"/>
<path d="M24.2917 49.5H10.7917C10.4933 49.5 10.2072 49.6185 9.99622 49.8295C9.78524 50.0405 9.66672 50.3266 9.66672 50.625V61.875C9.66672 62.1734 9.78524 62.4595 9.99622 62.6705C10.2072 62.8815 10.4933 63 10.7917 63H24.2917C24.5901 63 24.8762 62.8815 25.0872 62.6705C25.2982 62.4595 25.4167 62.1734 25.4167 61.875V50.625C25.4167 50.3266 25.2982 50.0405 25.0872 49.8295C24.8762 49.6185 24.5901 49.5 24.2917 49.5ZM23.1667 60.75H11.9167V51.75H23.1667V60.75Z" fill="#231F20"/>
<path d="M31.0417 36H28.7917C28.4933 36 28.2072 36.1185 27.9962 36.3295C27.7852 36.5405 27.6667 36.8266 27.6667 37.125C27.6667 37.4234 27.7852 37.7095 27.9962 37.9205C28.2072 38.1315 28.4933 38.25 28.7917 38.25H31.0417C31.3401 38.25 31.6262 38.1315 31.8372 37.9205C32.0482 37.7095 32.1667 37.4234 32.1667 37.125C32.1667 36.8266 32.0482 36.5405 31.8372 36.3295C31.6262 36.1185 31.3401 36 31.0417 36Z" fill="#231F20"/>
<path d="M24.2917 24.75H10.7917C10.4933 24.75 10.2072 24.8685 9.99622 25.0795C9.78524 25.2905 9.66672 25.5766 9.66672 25.875C9.66672 26.1734 9.78524 26.4595 9.99622 26.6705C10.2072 26.8815 10.4933 27 10.7917 27H24.2917C24.5901 27 24.8762 26.8815 25.0872 26.6705C25.2982 26.4595 25.4167 26.1734 25.4167 25.875C25.4167 25.5766 25.2982 25.2905 25.0872 25.0795C24.8762 24.8685 24.5901 24.75 24.2917 24.75Z" fill="#231F20"/>
<path d="M24.2917 29.25H10.7917C10.4933 29.25 10.2072 29.3685 9.99622 29.5795C9.78524 29.7905 9.66672 30.0766 9.66672 30.375C9.66672 30.6734 9.78524 30.9595 9.99622 31.1705C10.2072 31.3815 10.4933 31.5 10.7917 31.5H24.2917C24.5901 31.5 24.8762 31.3815 25.0872 31.1705C25.2982 30.9595 25.4167 30.6734 25.4167 30.375C25.4167 30.0766 25.2982 29.7905 25.0872 29.5795C24.8762 29.3685 24.5901 29.25 24.2917 29.25Z" fill="#231F20"/>
<path d="M35.5417 38.25H53.5417C53.8401 38.25 54.1262 38.1315 54.3372 37.9205C54.5482 37.7095 54.6667 37.4234 54.6667 37.125C54.6667 36.8266 54.5482 36.5405 54.3372 36.3295C54.1262 36.1185 53.8401 36 53.5417 36H35.5417C35.2433 36 34.9572 36.1185 34.7462 36.3295C34.5352 36.5405 34.4167 36.8266 34.4167 37.125C34.4167 37.4234 34.5352 37.7095 34.7462 37.9205C34.9572 38.1315 35.2433 38.25 35.5417 38.25Z" fill="#231F20"/>
<path d="M31.0417 40.5H28.7917C28.4933 40.5 28.2072 40.6185 27.9962 40.8295C27.7852 41.0405 27.6667 41.3266 27.6667 41.625C27.6667 41.9234 27.7852 42.2095 27.9962 42.4205C28.2072 42.6315 28.4933 42.75 28.7917 42.75H31.0417C31.3401 42.75 31.6262 42.6315 31.8372 42.4205C32.0482 42.2095 32.1667 41.9234 32.1667 41.625C32.1667 41.3266 32.0482 41.0405 31.8372 40.8295C31.6262 40.6185 31.3401 40.5 31.0417 40.5Z" fill="#231F20"/>
<path d="M35.5417 42.75H46.7917C47.0901 42.75 47.3762 42.6315 47.5872 42.4205C47.7982 42.2095 47.9167 41.9234 47.9167 41.625C47.9167 41.3266 47.7982 41.0405 47.5872 40.8295C47.3762 40.6185 47.0901 40.5 46.7917 40.5H35.5417C35.2433 40.5 34.9572 40.6185 34.7462 40.8295C34.5352 41.0405 34.4167 41.3266 34.4167 41.625C34.4167 41.9234 34.5352 42.2095 34.7462 42.4205C34.9572 42.6315 35.2433 42.75 35.5417 42.75Z" fill="#231F20"/>
<path d="M31.0417 45H28.7917C28.4933 45 28.2072 45.1185 27.9962 45.3295C27.7852 45.5405 27.6667 45.8266 27.6667 46.125C27.6667 46.4234 27.7852 46.7095 27.9962 46.9205C28.2072 47.1315 28.4933 47.25 28.7917 47.25H31.0417C31.3401 47.25 31.6262 47.1315 31.8372 46.9205C32.0482 46.7095 32.1667 46.4234 32.1667 46.125C32.1667 45.8266 32.0482 45.5405 31.8372 45.3295C31.6262 45.1185 31.3401 45 31.0417 45Z" fill="#231F20"/>
<path d="M35.5417 47.25H46.7917C47.0901 47.25 47.3762 47.1315 47.5872 46.9205C47.7982 46.7095 47.9167 46.4234 47.9167 46.125C47.9167 45.8266 47.7982 45.5405 47.5872 45.3295C47.3762 45.1185 47.0901 45 46.7917 45H35.5417C35.2433 45 34.9572 45.1185 34.7462 45.3295C34.5352 45.5405 34.4167 45.8266 34.4167 46.125C34.4167 46.4234 34.5352 46.7095 34.7462 46.9205C34.9572 47.1315 35.2433 47.25 35.5417 47.25Z" fill="#231F20"/>
<path d="M31.0417 50.625H28.7917C28.4933 50.625 28.2072 50.7435 27.9962 50.9545C27.7852 51.1655 27.6667 51.4516 27.6667 51.75C27.6667 52.0484 27.7852 52.3345 27.9962 52.5455C28.2072 52.7565 28.4933 52.875 28.7917 52.875H31.0417C31.3401 52.875 31.6262 52.7565 31.8372 52.5455C32.0482 52.3345 32.1667 52.0484 32.1667 51.75C32.1667 51.4516 32.0482 51.1655 31.8372 50.9545C31.6262 50.7435 31.3401 50.625 31.0417 50.625Z" fill="#231F20"/>
<path d="M35.5417 52.875H46.7917C47.0901 52.875 47.3762 52.7565 47.5872 52.5455C47.7982 52.3345 47.9167 52.0484 47.9167 51.75C47.9167 51.4516 47.7982 51.1655 47.5872 50.9545C47.3762 50.7435 47.0901 50.625 46.7917 50.625H35.5417C35.2433 50.625 34.9572 50.7435 34.7462 50.9545C34.5352 51.1655 34.4167 51.4516 34.4167 51.75C34.4167 52.0484 34.5352 52.3345 34.7462 52.5455C34.9572 52.7565 35.2433 52.875 35.5417 52.875Z" fill="#231F20"/>
<path d="M31.0417 55.125H28.7917C28.4933 55.125 28.2072 55.2435 27.9962 55.4545C27.7852 55.6655 27.6667 55.9516 27.6667 56.25C27.6667 56.5484 27.7852 56.8345 27.9962 57.0455C28.2072 57.2565 28.4933 57.375 28.7917 57.375H31.0417C31.3401 57.375 31.6262 57.2565 31.8372 57.0455C32.0482 56.8345 32.1667 56.5484 32.1667 56.25C32.1667 55.9516 32.0482 55.6655 31.8372 55.4545C31.6262 55.2435 31.3401 55.125 31.0417 55.125Z" fill="#231F20"/>
<path d="M35.5417 57.375H50.1667C50.4651 57.375 50.7512 57.2565 50.9622 57.0455C51.1732 56.8345 51.2917 56.5484 51.2917 56.25C51.2917 55.9516 51.1732 55.6655 50.9622 55.4545C50.7512 55.2435 50.4651 55.125 50.1667 55.125H35.5417C35.2433 55.125 34.9572 55.2435 34.7462 55.4545C34.5352 55.6655 34.4167 55.9516 34.4167 56.25C34.4167 56.5484 34.5352 56.8345 34.7462 57.0455C34.9572 57.2565 35.2433 57.375 35.5417 57.375Z" fill="#231F20"/>
<path d="M31.0417 59.625H28.7917C28.4933 59.625 28.2072 59.7435 27.9962 59.9545C27.7852 60.1655 27.6667 60.4516 27.6667 60.75C27.6667 61.0484 27.7852 61.3345 27.9962 61.5455C28.2072 61.7565 28.4933 61.875 28.7917 61.875H31.0417C31.3401 61.875 31.6262 61.7565 31.8372 61.5455C32.0482 61.3345 32.1667 61.0484 32.1667 60.75C32.1667 60.4516 32.0482 60.1655 31.8372 59.9545C31.6262 59.7435 31.3401 59.625 31.0417 59.625Z" fill="#231F20"/>
<path d="M53.5417 59.625H35.5417C35.2433 59.625 34.9572 59.7435 34.7462 59.9545C34.5352 60.1655 34.4167 60.4516 34.4167 60.75C34.4167 61.0484 34.5352 61.3345 34.7462 61.5455C34.9572 61.7565 35.2433 61.875 35.5417 61.875H53.5417C53.8401 61.875 54.1262 61.7565 54.3372 61.5455C54.5482 61.3345 54.6667 61.0484 54.6667 60.75C54.6667 60.4516 54.5482 60.1655 54.3372 59.9545C54.1262 59.7435 53.8401 59.625 53.5417 59.625Z" fill="#231F20"/>
</svg>
