<svg width="73" height="72" viewBox="0 0 73 72" fill="none" xmlns="http://www.w3.org/2000/svg">
<g clip-path="url(#clip0_26_3186)">
<path d="M56.8559 70.9454H4.20089C2.64757 70.9454 1.38843 69.6863 1.38843 68.1329V22.7473H59.6684V68.1329C59.6684 69.6863 58.4092 70.9454 56.8559 70.9454Z" fill="#E8EDF2"/>
<path d="M59.6684 22.7473H29.823V46.6294C29.823 50.1187 32.6618 52.9574 36.1511 52.9574H38.4389L41.5188 57.735C42.299 58.9456 43.6246 59.6683 45.0648 59.6683C46.5049 59.6683 47.8306 58.9456 48.6105 57.7354L51.6907 52.9574H59.6684V22.7473Z" fill="#C5D3DD"/>
<path d="M51.4025 63.6695H9.65428C8.87762 63.6695 8.24805 63.04 8.24805 62.2633V44.2831C8.24805 43.5064 8.87762 42.8768 9.65428 42.8768H51.4025C52.1792 42.8768 52.8088 43.5064 52.8088 44.2831V62.2633C52.8088 63.04 52.1792 63.6695 51.4025 63.6695Z" fill="#FFD064"/>
<path d="M51.4025 42.8768H29.823V46.6295C29.823 50.1188 32.6618 52.9576 36.1511 52.9576H38.4389L41.5188 57.7351C42.299 58.9457 43.6246 59.6684 45.0648 59.6684C46.5049 59.6684 47.8306 58.9457 48.6105 57.7355L51.6907 52.9576H52.8088V44.2831C52.8088 43.5064 52.1792 42.8768 51.4025 42.8768Z" fill="#EBB044"/>
<path d="M11.2602 62.2633V44.2831C11.2602 43.5064 11.8898 42.8768 12.6664 42.8768H9.65428C8.87762 42.8768 8.24805 43.5064 8.24805 44.2831V62.2633C8.24805 63.04 8.87762 63.6695 9.65428 63.6695H12.6664C11.8899 63.6695 11.2602 63.04 11.2602 62.2633Z" fill="#EBB044"/>
<path d="M51.4025 38.3933H9.65428C8.87762 38.3933 8.24805 37.7637 8.24805 36.9871V31.443C8.24805 30.6663 8.87762 30.0367 9.65428 30.0367H51.4025C52.1792 30.0367 52.8088 30.6663 52.8088 31.443V36.9871C52.8088 37.7637 52.1792 38.3933 51.4025 38.3933Z" fill="#FFD064"/>
<path d="M52.8088 36.9871V31.443C52.8088 30.6663 52.1792 30.0367 51.4025 30.0367H29.823V38.3933H51.4025C52.1792 38.3933 52.8088 37.7637 52.8088 36.9871Z" fill="#EBB044"/>
<path d="M11.2602 36.9871V31.443C11.2602 30.6663 11.8898 30.0367 12.6665 30.0367H9.6543C8.87762 30.0367 8.24805 30.6663 8.24805 31.443V36.9871C8.24805 37.7638 8.87762 38.3934 9.6543 38.3934H12.6665C11.89 38.3934 11.2602 37.7638 11.2602 36.9871Z" fill="#EBB044"/>
<path d="M5.08092 68.1329V22.7473H1.38843V68.1329C1.38843 69.6863 2.64757 70.9454 4.20089 70.9454H7.89324C6.34006 70.9454 5.08092 69.6863 5.08092 68.1329Z" fill="#C5D3DD"/>
<path d="M56.8559 14.5406H4.20089C2.64757 14.5406 1.38843 15.7998 1.38843 17.3531V24.5104H59.6684V17.3531C59.6684 15.7998 58.4092 14.5406 56.8559 14.5406Z" fill="#90D8F9"/>
<path d="M29.823 24.5103H59.6684V17.353C59.6684 15.7997 58.4092 14.5405 56.8559 14.5405H29.823V24.5103Z" fill="#75CEF9"/>
<path d="M7.89346 14.5406H4.20093C2.64758 14.5406 1.38843 15.7998 1.38843 17.3531V24.5104H5.08082V17.3531C5.08096 15.7998 6.34012 14.5406 7.89346 14.5406Z" fill="#75CEF9"/>
<path d="M68.4658 8.05017H36.1512C34.5979 8.05017 33.3388 9.30931 33.3388 10.8626V46.6293C33.3388 48.1827 34.5979 49.4418 36.1512 49.4418H39.5886C40.0665 49.4418 40.5117 49.6845 40.7706 50.0861L44.4739 55.8306C44.7508 56.2601 45.3789 56.2601 45.6558 55.8306L49.3591 50.0861C49.618 49.6845 50.062 49.4418 50.5398 49.4418H68.4669C70.0202 49.4418 71.2784 48.1827 71.2784 46.6293V10.8626C71.2782 9.30945 70.0191 8.05017 68.4658 8.05017Z" fill="#DD636E"/>
<path d="M55.0939 28.5446L55.1043 28.5502L66.0621 8.05017H49.1348L41.9388 21.5126L41.9493 21.5182C41.6202 22.2316 41.4288 22.991 41.381 23.7816L41.0327 29.5542C40.9501 30.9241 41.4195 32.2256 42.3545 33.2188C43.2856 34.2079 44.5966 34.7752 45.9514 34.7755H45.952C47.0286 34.7755 48.0555 34.428 48.9214 33.7709L53.5276 30.2744C54.1585 29.7955 54.6835 29.2144 55.0939 28.5446Z" fill="#C63D4F"/>
<path d="M36.4236 46.6295V10.8626C36.4236 9.30931 37.6828 8.05017 39.2361 8.05017H36.1512C34.5979 8.05017 33.3388 9.30931 33.3388 10.8626V46.6293C33.3388 48.1827 34.5979 49.4418 36.1512 49.4418H39.2361C37.6828 49.442 36.4236 48.1827 36.4236 46.6295Z" fill="#C63D4F"/>
<path d="M43.8555 50.0861C43.5966 49.6845 43.1514 49.4418 42.6735 49.4418H39.5886C40.0665 49.4418 40.5117 49.6845 40.7706 50.0861L44.4738 55.8306C44.7507 56.2601 45.3789 56.2601 45.6557 55.8306L46.6072 54.3548L43.8555 50.0861Z" fill="#C63D4F"/>
<path d="M46.6965 20.0696L45.2172 22.8369C45.0261 23.1944 44.9146 23.5889 44.8903 23.9934L44.5419 29.7661C44.4695 30.9659 45.8384 31.6977 46.7959 30.9708L51.4022 27.4743C51.7251 27.2294 51.991 26.9173 52.1821 26.56L53.6613 23.7928L46.6965 20.0696Z" fill="#4A80AA"/>
<path d="M53.6612 23.7924L46.6964 20.0695L56.4624 1.79917C56.8286 1.1142 57.6807 0.855731 58.3655 1.22191L62.85 3.61898C63.5349 3.98516 63.7934 4.8372 63.4272 5.52204L53.6612 23.7924Z" fill="#90D8F9"/>
<path d="M47.3904 25.3297C47.4149 24.9251 47.5264 24.5307 47.7174 24.1732L49.1966 21.4058L46.6965 20.0693L45.2172 22.8367C45.0261 23.1942 44.9146 23.5886 44.8903 23.9932L44.5419 29.7659C44.4695 30.9657 45.8384 31.6975 46.7959 30.9706L47.0624 30.7684L47.3904 25.3297Z" fill="#407093"/>
<path d="M60.8658 2.5584L58.3656 1.22191C57.6807 0.855731 56.8286 1.1142 56.4626 1.79917L46.6966 20.0695L49.1967 21.406L58.9627 3.13566C59.3288 2.45068 60.1808 2.19222 60.8658 2.5584Z" fill="#75CEF9"/>
<path d="M1.38842 43.6777C1.97088 43.6777 2.44309 43.2055 2.44309 42.623V25.5648H28.509C29.0915 25.5648 29.5637 25.0926 29.5637 24.5101C29.5637 23.9277 29.0915 23.4555 28.509 23.4555H2.44309V17.353C2.44309 16.3837 3.23157 15.5952 4.20088 15.5952H28.4584C29.0409 15.5952 29.5131 15.123 29.5131 14.5405C29.5131 13.9581 29.0409 13.4858 28.4584 13.4858H4.20088C2.06847 13.4858 0.33374 15.2206 0.33374 17.353V24.5101V42.6229C0.33374 43.2055 0.805953 43.6777 1.38842 43.6777Z" fill="black"/>
<path d="M6.68347 18.7762C6.101 18.7762 5.62878 19.2485 5.62878 19.8309C5.62878 20.4134 6.101 20.8856 6.68347 20.8856H7.76347C8.34594 20.8856 8.81816 20.4134 8.81816 19.8309C8.81816 19.2485 8.34594 18.7762 7.76347 18.7762H6.68347Z" fill="black"/>
<path d="M11.9488 18.7762C11.3664 18.7762 10.8941 19.2485 10.8941 19.8309C10.8941 20.4134 11.3664 20.8856 11.9488 20.8856H13.0288C13.6113 20.8856 14.0835 20.4134 14.0835 19.8309C14.0835 19.2485 13.6113 18.7762 13.0288 18.7762H11.9488Z" fill="black"/>
<path d="M17.2142 18.7762C16.6317 18.7762 16.1595 19.2485 16.1595 19.8309C16.1595 20.4134 16.6317 20.8856 17.2142 20.8856H18.2942C18.8766 20.8856 19.3489 20.4134 19.3489 19.8309C19.3489 19.2485 18.8766 18.7762 18.2942 18.7762H17.2142Z" fill="black"/>
<path d="M68.4658 6.99561H67.0342C66.4517 6.99561 65.9795 7.46782 65.9795 8.05028C65.9795 8.63274 66.4517 9.10496 67.0342 9.10496H68.4658C69.4351 9.10496 70.2235 9.89343 70.2235 10.8627V46.6295C70.2235 47.5988 69.4355 48.3872 68.4667 48.3872H50.5397C49.7004 48.3872 48.9277 48.8087 48.4725 49.5148L45.0648 54.8008L41.6569 49.5148C41.2018 48.8087 40.4286 48.3872 39.5886 48.3872H36.1512C35.1819 48.3872 34.3934 47.5988 34.3934 46.6295V10.8627C34.3934 9.89343 35.1819 9.10496 36.1512 9.10496H48.3538C48.9363 9.10496 49.4085 8.63274 49.4085 8.05028C49.4085 7.46782 48.9363 6.99561 48.3538 6.99561H36.1512C34.0188 6.99561 32.2841 8.73034 32.2841 10.8627V28.9822H9.65426C8.29738 28.9822 7.19335 30.0862 7.19335 31.4431V36.9872C7.19335 38.3441 8.29738 39.4481 9.65426 39.4481H32.2839V41.8222H9.65426C8.29738 41.8222 7.19335 42.9263 7.19335 44.2831V62.2634C7.19335 63.6203 8.29738 64.7243 9.65426 64.7243H51.4025C52.7594 64.7243 53.8634 63.6203 53.8634 62.2634V50.4967H58.6137V68.1331C58.6137 69.1025 57.8252 69.8909 56.8559 69.8909H4.20088C3.23157 69.8909 2.44309 69.1025 2.44309 68.1331V48.3857C2.44309 47.8032 1.97088 47.331 1.38842 47.331C0.805953 47.331 0.33374 47.8032 0.33374 48.3857V68.1329C0.33374 70.2653 2.06847 72 4.20088 72H56.8559C58.9883 72 60.723 70.2653 60.723 68.1329V50.4966H68.4667C70.5986 50.4966 72.3329 48.7619 72.3329 46.6295V10.8627C72.3329 8.73034 70.5982 6.99561 68.4658 6.99561ZM9.65426 37.3386C9.46048 37.3386 9.3027 37.1808 9.3027 36.987V31.443C9.3027 31.2492 9.46048 31.0914 9.65426 31.0914H32.2839V37.3386H9.65426ZM51.7541 62.2632C51.7541 62.457 51.5963 62.6148 51.4025 62.6148H9.65426C9.46048 62.6148 9.3027 62.457 9.3027 62.2632V44.283C9.3027 44.0892 9.46048 43.9314 9.65426 43.9314H32.2839V46.6295C32.2839 48.7619 34.0187 50.4966 36.1511 50.4966H39.5885C39.7086 50.4966 39.819 50.5568 39.8839 50.6577L43.5871 56.4021C43.9122 56.9065 44.4646 57.2076 45.0646 57.2076C45.6647 57.2076 46.2169 56.9063 46.5419 56.4022L50.2452 50.6577C50.3102 50.5569 50.4203 50.4966 50.5394 50.4966H51.7538V62.2632H51.7541Z" fill="black"/>
<path d="M44.2871 22.3395C44.0225 22.8345 43.8711 23.3696 43.8375 23.9296L43.4892 29.702C43.4306 30.6734 43.9274 31.5619 44.7856 32.0206C45.1553 32.2182 45.554 32.3158 45.9501 32.3158C46.4735 32.3158 46.9924 32.1455 47.4336 31.8105L52.0398 28.3141C52.4869 27.9747 52.8476 27.5518 53.1122 27.0568L64.3574 6.01922C64.9971 4.82252 64.5439 3.32853 63.3472 2.68884L58.8627 0.291773C58.2829 -0.0183014 57.6172 -0.0835506 56.9882 0.107135C56.3592 0.297961 55.8421 0.722362 55.5322 1.30201L44.2871 22.3395ZM51.252 26.0624C51.1318 26.2874 50.9678 26.4796 50.7645 26.6339L46.1582 30.1305C46.002 30.249 45.8542 30.2003 45.7801 30.1605C45.7059 30.1208 45.5831 30.0249 45.5949 29.8291L45.9432 24.0566C45.9586 23.802 46.0273 23.5588 46.1476 23.3339L47.1295 21.4968L52.234 24.2253L51.252 26.0624ZM55.0047 6.7634L60.1093 9.49206L53.2284 22.3651L48.1237 19.6366L55.0047 6.7634ZM57.3926 2.29636C57.4524 2.1847 57.5486 2.14139 57.6006 2.12564C57.6528 2.10975 57.7567 2.09231 57.8684 2.15208L62.3528 4.54914C62.5238 4.64055 62.5885 4.85388 62.4971 5.02487L61.1037 7.63175L55.9991 4.90309L57.3926 2.29636Z" fill="black"/>
<path d="M65.8698 30.2051H54.7662C54.1838 30.2051 53.7115 30.6773 53.7115 31.2598C53.7115 31.8422 54.1838 32.3144 54.7662 32.3144H65.8698C66.4523 32.3144 66.9245 31.8422 66.9245 31.2598C66.9245 30.6773 66.4523 30.2051 65.8698 30.2051Z" fill="black"/>
<path d="M38.7471 32.3145H39.9164C40.4989 32.3145 40.9711 31.8422 40.9711 31.2598C40.9711 30.6773 40.4989 30.2051 39.9164 30.2051H38.7471C38.1647 30.2051 37.6924 30.6773 37.6924 31.2598C37.6924 31.8422 38.1647 32.3145 38.7471 32.3145Z" fill="black"/>
<path d="M65.8698 34.9457H38.7471C38.1647 34.9457 37.6924 35.4179 37.6924 36.0004C37.6924 36.5828 38.1647 37.055 38.7471 37.055H65.8698C66.4523 37.055 66.9245 36.5828 66.9245 36.0004C66.9245 35.4179 66.4523 34.9457 65.8698 34.9457Z" fill="black"/>
<path d="M65.8698 39.6864H38.7471C38.1647 39.6864 37.6924 40.1586 37.6924 40.7411C37.6924 41.3235 38.1647 41.7958 38.7471 41.7958H65.8698C66.4523 41.7958 66.9245 41.3235 66.9245 40.7411C66.9245 40.1586 66.4523 39.6864 65.8698 39.6864Z" fill="black"/>
</g>
<defs>
<clipPath id="clip0_26_3186">
<rect width="72" height="72" fill="white" transform="translate(0.333313)"/>
</clipPath>
</defs>
</svg>
