<svg width="73" height="72" viewBox="0 0 73 72" fill="none" xmlns="http://www.w3.org/2000/svg">
<path d="M5.70837 18H66.4584C67.0551 18 67.6274 18.2371 68.0494 18.659C68.4713 19.081 68.7084 19.6533 68.7084 20.25V54H3.45837V20.25C3.45837 19.6533 3.69543 19.081 4.11738 18.659C4.53934 18.2371 5.11164 18 5.70837 18Z" fill="#3780EA"/>
<path d="M7.95837 31.5H37.2084V49.5H7.95837V31.5Z" fill="#896FF7"/>
<path d="M47.3334 64.125V68.625H24.8334V64.125H32.7084H39.4584H47.3334Z" fill="#E8E5FB"/>
<path d="M32.7084 57.375H39.4584V64.125H32.7084V57.375Z" fill="#8E95A3"/>
<path d="M68.7084 55.125V56.25C68.7066 56.8462 68.469 57.4175 68.0474 57.839C67.6258 58.2606 67.0546 58.4982 66.4584 58.5H5.70837C5.11218 58.4982 4.54092 58.2606 4.11935 57.839C3.69778 57.4175 3.46015 56.8462 3.45837 56.25V54H68.7084V55.125Z" fill="#E8E5FB"/>
<path d="M24.8334 15.75L18.0834 19.125V12.375L24.8334 15.75Z" fill="#EC455A"/>
<path d="M9.08337 18V6.75H31.5834V24.75H9.08337V18ZM18.0834 19.125L24.8334 15.75L18.0834 12.375V19.125Z" fill="#78B9EB"/>
<path d="M37.2084 31.5L22.5834 40.5L7.95837 31.5H37.2084Z" fill="#B9B1F1"/>
<path d="M40.5834 7.875H48.4584V16.875H40.5834V7.875Z" fill="#E8E5FB"/>
<path d="M46.2084 16.875L45.0834 24.75H41.7084V16.875H46.2084Z" fill="#C7BEC5"/>
<path d="M66.9196 10.7887C67.1311 10.995 67.2989 11.2418 67.4129 11.5143C67.527 11.7868 67.5849 12.0795 67.5834 12.375C67.5816 12.9712 67.344 13.5424 66.9224 13.964C66.5008 14.3856 65.9296 14.6232 65.3334 14.625H63.0834V10.125H65.3334C65.6288 10.1234 65.9215 10.1814 66.1941 10.2954C66.4666 10.4094 66.7134 10.5772 66.9196 10.7887Z" fill="#EC455A"/>
<path d="M63.0834 3.375V21.375L48.4584 16.875V7.875L63.0834 3.375Z" fill="#F6CC4F"/>
<path d="M37.2084 10.125H40.5834V14.625H37.2084V10.125Z" fill="#EC455A"/>
<path d="M41.7084 29.25H61.9584V42.75H41.7084V29.25Z" fill="#9E2849"/>
<path d="M64.2084 33.75V47.25H45.0834V42.75V33.75H61.9584H64.2084Z" fill="#EC455A"/>
<path d="M66.4584 16.875H64.2084V15.75H65.3334C66.2285 15.75 67.0869 15.3944 67.7199 14.7615C68.3528 14.1285 68.7084 13.2701 68.7084 12.375C68.7084 11.4799 68.3528 10.6214 67.7199 9.9885C67.0869 9.35557 66.2285 8.99999 65.3334 8.99999H64.2084V3.37499C64.21 3.19885 64.1689 3.02495 64.0886 2.8682C64.0082 2.71144 63.8911 2.57652 63.7471 2.47499C63.6078 2.36948 63.4456 2.29821 63.2736 2.26695C63.1016 2.23568 62.9247 2.24528 62.7571 2.29499L48.2896 6.74999H40.5834C40.285 6.74999 39.9989 6.86851 39.7879 7.07949C39.5769 7.29047 39.4584 7.57662 39.4584 7.87499V8.99999H37.2084C36.91 8.99999 36.6239 9.11851 36.4129 9.32949C36.2019 9.54047 36.0834 9.82662 36.0834 10.125V14.625C36.0834 14.9234 36.2019 15.2095 36.4129 15.4205C36.6239 15.6315 36.91 15.75 37.2084 15.75H39.4584V16.875H32.7084V6.74999C32.7084 6.45162 32.5898 6.16547 32.3789 5.95449C32.1679 5.74351 31.8817 5.62499 31.5834 5.62499H9.08337C8.78501 5.62499 8.49886 5.74351 8.28788 5.95449C8.0769 6.16547 7.95837 6.45162 7.95837 6.74999V16.875H5.70837C4.81409 16.8777 3.9572 17.2341 3.32484 17.8665C2.69248 18.4988 2.33604 19.3557 2.33337 20.25V56.25C2.33604 57.1443 2.69248 58.0012 3.32484 58.6335C3.9572 59.2659 4.81409 59.6223 5.70837 59.625H31.5834V63H24.8334C24.535 63 24.2489 63.1185 24.0379 63.3295C23.8269 63.5405 23.7084 63.8266 23.7084 64.125V68.625C23.7084 68.9234 23.8269 69.2095 24.0379 69.4205C24.2489 69.6315 24.535 69.75 24.8334 69.75H47.3334C47.6317 69.75 47.9179 69.6315 48.1289 69.4205C48.3398 69.2095 48.4584 68.9234 48.4584 68.625V64.125C48.4584 63.8266 48.3398 63.5405 48.1289 63.3295C47.9179 63.1185 47.6317 63 47.3334 63H40.5834V59.625H66.4584C67.3527 59.6223 68.2096 59.2659 68.8419 58.6335C69.4743 58.0012 69.8307 57.1443 69.8334 56.25V20.25C69.8307 19.3557 69.4743 18.4988 68.8419 17.8665C68.2096 17.2341 67.3527 16.8777 66.4584 16.875ZM64.2084 11.25H65.3334C65.6317 11.25 65.9179 11.3685 66.1289 11.5795C66.3398 11.7905 66.4584 12.0766 66.4584 12.375C66.4584 12.6734 66.3398 12.9595 66.1289 13.1705C65.9179 13.3815 65.6317 13.5 65.3334 13.5H64.2084V11.25ZM49.5834 8.70749L61.9584 4.89374V19.8562L49.5834 16.0425V8.70749ZM41.7084 8.99999H47.3334V15.75H41.7084V8.99999ZM44.9146 18L44.1046 23.625H42.8334V18H44.9146ZM38.3334 13.5V11.25H39.4584V13.5H38.3334ZM10.2084 7.87499H30.4584V23.625H10.2084V7.87499ZM46.2084 65.25V67.5H25.9584V65.25H46.2084ZM33.8334 63V59.625H38.3334V63H33.8334ZM67.5834 56.25C67.5834 56.5484 67.4648 56.8345 67.2539 57.0455C67.0429 57.2565 66.7567 57.375 66.4584 57.375H5.70837C5.41001 57.375 5.12386 57.2565 4.91288 57.0455C4.7019 56.8345 4.58337 56.5484 4.58337 56.25V55.125H67.5834V56.25ZM67.5834 52.875H4.58337V20.25C4.58337 19.9516 4.7019 19.6655 4.91288 19.4545C5.12386 19.2435 5.41001 19.125 5.70837 19.125H7.95837V24.75C7.95837 25.0484 8.0769 25.3345 8.28788 25.5455C8.49886 25.7565 8.78501 25.875 9.08337 25.875H31.5834C31.8817 25.875 32.1679 25.7565 32.3789 25.5455C32.5898 25.3345 32.7084 25.0484 32.7084 24.75V19.125H40.5834V24.75C40.5834 25.0484 40.7019 25.3345 40.9129 25.5455C41.1239 25.7565 41.41 25.875 41.7084 25.875H45.0834C45.3544 25.8749 45.6164 25.777 45.821 25.5993C46.0256 25.4215 46.1592 25.1759 46.1971 24.9075L47.1871 18H48.2896L62.7571 22.455C62.8628 22.4872 62.9729 22.5024 63.0834 22.5C63.3804 22.4956 63.664 22.3757 63.8741 22.1657C64.0841 21.9556 64.204 21.672 64.2084 21.375V19.125H66.4584C66.7567 19.125 67.0429 19.2435 67.2539 19.4545C67.4648 19.6655 67.5834 19.9516 67.5834 20.25V52.875Z" fill="black"/>
<path d="M7.95837 50.625H37.2084C37.5067 50.625 37.7929 50.5065 38.0039 50.2955C38.2148 50.0845 38.3334 49.7984 38.3334 49.5V31.5C38.3334 31.2016 38.2148 30.9155 38.0039 30.7045C37.7929 30.4935 37.5067 30.375 37.2084 30.375H7.95837C7.66001 30.375 7.37386 30.4935 7.16288 30.7045C6.9519 30.9155 6.83337 31.2016 6.83337 31.5V49.5C6.83337 49.7984 6.9519 50.0845 7.16288 50.2955C7.37386 50.5065 7.66001 50.625 7.95837 50.625ZM9.08337 48.375V33.5126L21.9939 41.4585C22.1712 41.5676 22.3752 41.6253 22.5834 41.6253C22.7915 41.6253 22.9956 41.5676 23.1729 41.4585L36.0834 33.5126V48.375H9.08337ZM11.933 32.625H33.2337L22.5834 39.1793L11.933 32.625Z" fill="black"/>
<path d="M41.7084 43.875H43.9584V47.25C43.9584 47.5484 44.0769 47.8345 44.2879 48.0455C44.4989 48.2565 44.785 48.375 45.0834 48.375H64.2084C64.5067 48.375 64.7929 48.2565 65.0039 48.0455C65.2148 47.8345 65.3334 47.5484 65.3334 47.25V33.75C65.3334 33.4516 65.2148 33.1655 65.0039 32.9545C64.7929 32.7435 64.5067 32.625 64.2084 32.625H63.0834V29.25C63.0834 28.9516 62.9648 28.6655 62.7539 28.4545C62.5429 28.2435 62.2567 28.125 61.9584 28.125H41.7084C41.41 28.125 41.1239 28.2435 40.9129 28.4545C40.7019 28.6655 40.5834 28.9516 40.5834 29.25V42.75C40.5834 43.0484 40.7019 43.3345 40.9129 43.5455C41.1239 43.7565 41.41 43.875 41.7084 43.875ZM63.0834 46.125H46.2084V34.875H63.0834V46.125ZM42.8334 30.375H60.8334V32.625H45.0834C44.785 32.625 44.4989 32.7435 44.2879 32.9545C44.0769 33.1655 43.9584 33.4516 43.9584 33.75V41.625H42.8334V30.375Z" fill="black"/>
<path d="M48.4584 37.125H50.7084V39.375H48.4584V37.125Z" fill="black"/>
<path d="M52.9584 37.125H60.8334V39.375H52.9584V37.125Z" fill="black"/>
<path d="M48.4584 41.625H52.9584V43.875H48.4584V41.625Z" fill="black"/>
<path d="M55.2084 41.625H60.8334V43.875H55.2084V41.625Z" fill="black"/>
<path d="M17.4916 20.0824C17.6547 20.1832 17.8409 20.2407 18.0325 20.2494C18.2241 20.258 18.4147 20.2176 18.5862 20.1319L25.3362 16.7569C25.5235 16.6635 25.6809 16.5199 25.791 16.342C25.9011 16.1642 25.9594 15.9591 25.9594 15.75C25.9594 15.5408 25.9011 15.3358 25.791 15.1579C25.6809 14.9801 25.5235 14.8364 25.3362 14.7431L18.5862 11.3681C18.4147 11.2824 18.2241 11.2419 18.0325 11.2506C17.8409 11.2593 17.6547 11.3168 17.4916 11.4177C17.3285 11.5186 17.1939 11.6595 17.1006 11.827C17.0072 11.9946 16.9583 12.1832 16.9584 12.375V19.125C16.9583 19.3168 17.0072 19.5054 17.1005 19.673C17.1939 19.8405 17.3285 19.9815 17.4916 20.0824ZM19.2084 14.1952L22.3179 15.75L19.2084 17.3047V14.1952Z" fill="black"/>
</svg>
