<svg width="73" height="72" viewBox="0 0 73 72" fill="none" xmlns="http://www.w3.org/2000/svg">
<g clip-path="url(#clip0_50_1168)">
<path d="M67.4344 11.8938L60.1486 4.52686H52.1279L56.4194 11.8938H67.4344Z" fill="#EF5440"/>
<path d="M66.2267 27.4196C65.6148 27.6045 64.9802 27.6983 64.3408 27.6983H62.6086V56.1732H9.55873V27.6981H7.82595C7.18639 27.6981 6.55203 27.6044 5.94046 27.4194L4.37671 26.9464V59.2044C4.37671 60.3377 5.29864 61.2598 6.43194 61.2598H65.7352C66.8685 61.2598 67.7904 60.3377 67.7904 59.2044V26.9462L66.2267 27.4196Z" fill="#D1D6E4"/>
<g opacity="0.15">
<path d="M7.53332 59.2046V28.6076H6.72684C5.99826 28.6076 5.27517 28.5007 4.57795 28.2899L4.18701 28.1716V59.2044C4.18701 59.8362 4.70099 60.3504 5.33282 60.3504H8.67927C8.04744 60.3504 7.53332 59.8362 7.53332 59.2046Z" fill="black"/>
</g>
<path d="M21.7712 26.9402H22.5051C25.6879 26.9402 28.2772 24.3509 28.2772 21.1683C28.2772 21.1531 28.2776 21.1378 28.2784 21.1234L28.6858 13.561H16.9621L16.0022 21.1985L15.9995 21.2192L15.9998 21.2401C16.0382 24.3831 18.6272 26.9402 21.7712 26.9402Z" fill="#FFD05C"/>
<path d="M49.6613 26.9402H50.3955C53.5394 26.9402 56.1286 24.3831 56.1671 21.24L56.1674 21.219L55.2047 13.5612H43.481L43.8883 21.1228C43.8891 21.138 43.8896 21.1532 43.8896 21.1684C43.8899 24.351 46.4789 26.9402 49.6613 26.9402Z" fill="#FFD05C"/>
<path d="M56.2675 32.941H15.9006V36.0737H56.2675V32.941Z" fill="#F2F2F2"/>
<path d="M61.8704 27.4616C60.2694 27.0192 58.9075 25.9919 58.0352 24.5688L57.0013 22.8818L55.9676 24.5687C54.7662 26.5283 52.6831 27.698 50.3956 27.698H49.6614C47.3737 27.698 45.2909 26.5282 44.0899 24.569L43.056 22.8819L42.0222 24.5688C40.8212 26.5283 38.7382 27.6979 36.4506 27.6979H35.7166C33.4291 27.6979 31.3463 26.528 30.1451 24.5688L29.1113 22.8825L28.0776 24.5688C26.8764 26.5282 24.7933 27.6979 22.5055 27.6979H21.7716C19.4839 27.6979 17.4011 26.528 16.2 24.5685L15.1662 22.8815L14.1324 24.5684C13.2601 25.9914 11.8982 27.0186 10.2973 27.4612L9.40771 27.7069V56.3243H62.7607V27.7074L61.8704 27.4616ZM15.1425 36.8317V32.1834H57.0245V36.8319L15.1425 36.8317ZM33.7355 41.4602V51.0292H15.1425V41.4602H33.7355Z" fill="#60B7E2"/>
<g opacity="0.15">
<path d="M12.5603 27.1013C11.9497 27.6633 11.2529 28.0847 10.4995 28.3381L10.3167 28.3996V55.4153H12.5603V27.1013Z" fill="black"/>
</g>
<path d="M47.7549 62.0178V64.7453C47.7549 65.2049 47.3808 65.5789 46.9213 65.5789H25.2455C24.7859 65.5789 24.4119 65.2049 24.4119 64.7453V62.0178H2.05396V66.125C2.05396 66.8683 2.65878 67.4732 3.40227 67.4732H68.7649C69.5081 67.4732 70.113 66.8685 70.113 66.125V62.0178H47.7549Z" fill="#D1D6E4"/>
<g opacity="0.15">
<path d="M4.31028 66.1249V62.0176H0.563477V66.1249C0.563477 66.8682 1.1683 67.473 1.91179 67.473H5.65845C4.91511 67.473 4.31028 66.8683 4.31028 66.1249Z" fill="black"/>
</g>
<path d="M7.82582 26.9402H8.55974C11.7425 26.9402 14.3318 24.3509 14.3318 21.1683C14.3318 21.1335 14.3341 21.0988 14.3383 21.0643L15.2816 13.5612H3.43355L2.05965 21.2113L2.05444 21.2404L2.05487 21.2699C2.10901 24.3966 4.69777 26.9402 7.82582 26.9402Z" fill="#EF5440"/>
<path d="M40.279 4.52686H31.8876L30.5625 11.8938H41.6041L40.279 4.52686Z" fill="#EF5440"/>
<path d="M20.039 4.52686H12.0186L4.73315 11.8938H15.7476L20.039 4.52686Z" fill="#EF5440"/>
<path d="M57.8285 21.0645C57.8327 21.0989 57.8349 21.1337 57.8349 21.1683C57.8349 24.351 60.4243 26.9402 63.6067 26.9402H64.3407C67.4686 26.9402 70.0575 24.3966 70.1119 21.2701L70.1123 21.2404L68.7332 13.5612H56.885L57.8285 21.0645Z" fill="#EF5440"/>
<path d="M28.8682 11.8938L30.1934 4.52686H21.9687L17.677 11.8938H28.8682Z" fill="#FFD05C"/>
<path d="M29.9446 21.1991C29.961 24.3648 32.5502 26.9402 35.7162 26.9402H36.4502C39.6163 26.9402 42.2057 24.3648 42.2221 21.1991L41.8112 13.561H30.3555L29.945 21.1811L29.9446 21.1991Z" fill="#EF5440"/>
<path d="M54.4898 11.8938L50.1981 4.52686H41.9734L43.2986 11.8938H54.4898Z" fill="#FFD05C"/>
<path d="M32.9775 42.2177H15.9006V50.2711H32.9775V42.2177Z" fill="#F2F2F2"/>
<path d="M46.0875 62.0184H26.0791V63.9122H46.0875V62.0184Z" fill="#F2F2F2"/>
<path d="M70.9465 60.0473H68.7324C68.8081 59.7789 68.8514 59.4969 68.8514 59.2045V27.4553C70.8066 26.0486 72.0834 23.7554 72.0834 21.1682C72.0834 21.1009 72.0775 21.0336 72.0655 20.9674L70.5497 12.5264C70.5494 12.5247 70.549 12.5232 70.5486 12.5218C70.5462 12.5088 70.5427 12.4963 70.54 12.4834C70.532 12.447 70.5223 12.4112 70.5109 12.3764C70.507 12.3643 70.5036 12.3519 70.4992 12.3399C70.4838 12.2973 70.4656 12.2563 70.4455 12.2165C70.4396 12.2048 70.4335 12.1934 70.4272 12.1819C70.405 12.1412 70.381 12.1019 70.3541 12.0645C70.3488 12.057 70.3428 12.0503 70.3374 12.0429C70.3104 12.0072 70.2814 11.9732 70.2505 11.9411C70.2465 11.9371 70.2434 11.9321 70.2393 11.9282L61.3046 2.8939C61.0911 2.6779 60.8002 2.5564 60.4964 2.5564H11.6707C11.3669 2.5564 11.0759 2.6779 10.8624 2.8939L1.92779 11.9281C1.92568 11.9302 1.92413 11.9327 1.92202 11.9349C1.88701 11.9708 1.85452 12.0092 1.82443 12.0495C1.82134 12.0536 1.81824 12.0574 1.81515 12.0614C1.78618 12.1014 1.76031 12.1436 1.73668 12.1876C1.73246 12.1954 1.72838 12.2031 1.72445 12.2108C1.70251 12.254 1.68282 12.2986 1.66623 12.3449C1.66384 12.3518 1.66201 12.3585 1.65976 12.3654C1.64556 12.4079 1.63374 12.4513 1.62432 12.496C1.62292 12.5029 1.62095 12.5095 1.61982 12.5163C1.61926 12.5198 1.61813 12.5229 1.61757 12.5264L0.101496 20.9673C0.0894023 21.0338 0.0834961 21.101 0.0834961 21.1682C0.0834961 23.7554 1.36023 26.0486 3.31547 27.4554V59.2045C3.31547 59.4968 3.35879 59.7787 3.43444 60.0473H1.22031C0.592276 60.0473 0.0834961 60.5561 0.0834961 61.1841V66.125C0.0834961 67.9548 1.57229 69.4436 3.40238 69.4436H68.765C70.5947 69.4436 72.0835 67.9549 72.0835 66.125V61.1841C72.0834 60.5561 71.5746 60.0473 70.9465 60.0473ZM64.3407 26.6371H63.6068C60.5912 26.6371 58.1382 24.1838 58.1382 21.1684C58.1382 21.121 58.1351 21.0736 58.1292 21.0265L57.2289 13.8642H68.4799L69.8089 21.2647C69.7571 24.2362 67.3242 26.6371 64.3407 26.6371ZM44.1913 21.1072L43.8011 13.8643H54.9374L55.864 21.2363C55.8274 24.2208 53.3884 26.6371 50.3955 26.6371H49.6613C46.6459 26.6371 44.193 24.1838 44.193 21.1684C44.1928 21.148 44.1923 21.1274 44.1913 21.1072ZM27.974 21.1682C27.974 24.1839 25.5205 26.637 22.5051 26.637H21.7712C18.7784 26.637 16.3394 24.2205 16.303 21.2361L16.6522 18.458L17.2297 13.864H28.3661L27.9758 21.1069C27.9746 21.1274 27.974 21.148 27.974 21.1682ZM29.831 4.83002L28.6148 11.5906H18.2045L22.1429 4.83002C22.1429 4.83002 29.831 4.83002 29.831 4.83002ZM40.0257 4.83002L41.2418 11.5906H30.9252L32.1413 4.83002C32.1413 4.83002 40.0257 4.83002 40.0257 4.83002ZM50.024 4.83002L53.9623 11.5906H43.552L42.3359 4.83002C42.3359 4.83002 50.024 4.83002 50.024 4.83002ZM30.3331 19.6136L30.6428 13.8642H41.5241L41.9191 21.1973C41.9033 24.1994 39.456 26.6368 36.4503 26.6368H35.7164C32.7107 26.6368 30.2635 24.1992 30.2479 21.1972L30.3331 19.6136ZM66.7081 11.5906H56.5937L52.6553 4.83002H60.022L66.7081 11.5906ZM12.1452 4.83002H19.5114L15.573 11.5906H5.4593L12.1452 4.83002ZM3.687 13.8643H14.938L14.0377 21.0266C14.0318 21.0736 14.0287 21.1211 14.0287 21.1684C14.0287 24.1841 11.5752 26.6371 8.55979 26.6371H7.82587C4.84266 26.6371 2.40971 24.2361 2.3581 21.2648L3.687 13.8643ZM5.5891 59.2045V28.5801C6.29756 28.7943 7.04822 28.9109 7.82573 28.9109H8.3459V56.2489C8.3459 56.8769 8.85468 57.3857 9.48271 57.3857H15.2537C15.8817 57.3857 16.3905 56.8769 16.3905 56.2489C16.3905 55.6209 15.8817 55.1121 15.2537 55.1121H10.6197V28.6303C12.5326 28.1014 14.1513 26.8572 15.1655 25.2023C16.5277 27.4246 18.9788 28.9107 21.7711 28.9107H22.505C25.2971 28.9107 27.7487 27.4249 29.111 25.2026C30.4732 27.4249 32.9243 28.9107 35.7163 28.9107H36.4502C39.2423 28.9107 41.6934 27.4248 43.0556 25.2026C44.4178 27.4249 46.8692 28.9107 49.6612 28.9107H50.3954C53.1876 28.9107 55.639 27.4246 57.0012 25.2023C58.0155 26.8571 59.6343 28.1016 61.5475 28.6303V55.1119H18.9676C18.3395 55.1119 17.8308 55.6207 17.8308 56.2487C17.8308 56.8768 18.3395 57.3856 18.9676 57.3856H62.6844C63.3125 57.3856 63.8212 56.8768 63.8212 56.2487V28.9107H64.3408C65.1185 28.9107 65.8692 28.7942 66.5779 28.58V59.2045C66.5779 59.6692 66.2 60.0473 65.7353 60.0473H46.9212H25.2456H6.43172C5.96695 60.0473 5.5891 59.669 5.5891 59.2045ZM26.3824 62.3209H45.7846V63.6085H26.3824V62.3209ZM69.8097 66.1248C69.8097 66.701 69.341 67.1698 68.7649 67.1698H3.40238C2.8261 67.1698 2.35726 66.701 2.35726 66.1248V62.3208H6.43186H24.1088V64.7452C24.1088 65.3732 24.6176 65.882 25.2456 65.882H46.9214C47.5494 65.882 48.0582 65.3732 48.0582 64.7452V62.3208H65.7351H69.8097V66.1248Z" fill="black"/>
<path d="M15.0667 38.0445H57.1003C57.7284 38.0445 58.2371 37.5357 58.2371 36.9077V32.1076C58.2371 31.4795 57.7284 30.9708 57.1003 30.9708H15.0667C14.4387 30.9708 13.9299 31.4795 13.9299 32.1076V36.9077C13.9299 37.5355 14.4387 38.0445 15.0667 38.0445ZM16.2036 33.2444H55.9634V35.7707H16.2036V33.2444Z" fill="black"/>
<path d="M34.9483 51.105V41.3844C34.9483 40.7564 34.4395 40.2476 33.8115 40.2476H15.0667C14.4387 40.2476 13.9299 40.7564 13.9299 41.3844V51.105C13.9299 51.733 14.4387 52.2418 15.0667 52.2418H33.8115C34.4392 52.2419 34.9483 51.733 34.9483 51.105ZM32.6745 49.9682H16.2036V42.5212H32.6745V49.9682Z" fill="black"/>
<path d="M57.1 40.2476H38.377C37.749 40.2476 37.2402 40.7564 37.2402 41.3844C37.2402 42.0125 37.749 42.5212 38.377 42.5212H57.1001C57.7281 42.5212 58.2369 42.0125 58.2369 41.3844C58.2369 40.7564 57.728 40.2476 57.1 40.2476Z" fill="black"/>
<path d="M57.1 45.1085H38.377C37.749 45.1085 37.2402 45.6172 37.2402 46.2453C37.2402 46.8733 37.749 47.3821 38.377 47.3821H57.1001C57.7281 47.3821 58.2369 46.8733 58.2369 46.2453C58.2369 45.6172 57.728 45.1085 57.1 45.1085Z" fill="black"/>
<path d="M47.7388 49.9681H38.3773C37.7493 49.9681 37.2405 50.4769 37.2405 51.105C37.2405 51.733 37.7493 52.2418 38.3773 52.2418H47.7388C48.3668 52.2418 48.8756 51.733 48.8756 51.105C48.8756 50.4771 48.3666 49.9681 47.7388 49.9681Z" fill="black"/>
<g opacity="0.15">
<path d="M6.89771 26.9944C7.13297 27.104 7.39594 27.1877 7.69097 27.24C7.69097 27.24 7.38131 27.1632 6.89771 26.9944Z" fill="black"/>
</g>
<g opacity="0.15">
<path d="M4.50124 20.9289L4.49956 20.8518C4.49717 20.7503 4.50434 20.6491 4.52178 20.5496L4.53499 20.4736L5.59784 14.5555C5.89062 12.9276 6.6874 13.763 7.28969 13.1065C7.3548 13.0428 7.42286 12.9777 7.49402 12.9118C7.50794 12.8981 7.52102 12.8832 7.53564 12.8705L7.69441 12.7282L8.0305 12.4274L8.23905 11.5305L15.2229 4.527C15.5043 4.27528 14.5877 4.22382 14.9657 4.22382H11.9904C11.6124 4.22382 11.2479 4.36388 10.9663 4.6156L5.05587 10.4564L5.05559 10.4567L4.71949 10.7575L4.56059 10.8998C4.54582 10.9128 4.53288 10.9275 4.51896 10.941C4.44809 11.0071 4.38003 11.0721 4.31478 11.1358C3.71206 11.7921 2.91556 12.9274 2.62292 14.5552L1.55994 20.4734L1.54658 20.5495C1.52914 20.6489 1.52183 20.7502 1.52408 20.8517L1.52591 20.9288C1.619 24.7771 4.82749 27.9071 8.67766 27.9071H9.3767C9.66667 27.9071 9.952 27.8866 10.2328 27.8528C10.1402 27.8041 10.0493 27.7524 9.95875 27.6994C6.90424 26.943 4.58042 24.1952 4.50124 20.9289Z" fill="black"/>
</g>
</g>
<defs>
<clipPath id="clip0_50_1168">
<rect width="72" height="72" fill="white" transform="translate(0.0834961)"/>
</clipPath>
</defs>
</svg>
