<svg width="73" height="72" viewBox="0 0 73 72" fill="none" xmlns="http://www.w3.org/2000/svg">
<g clip-path="url(#clip0_50_1207)">
<path d="M59.7085 32.3438H66.4585C68.7887 32.3438 70.6772 30.4552 70.6772 28.125V9.5625C70.6772 7.2323 68.7887 5.34375 66.4585 5.34375H5.7085C3.3783 5.34375 1.48975 7.2323 1.48975 9.5625V28.125C1.48975 30.4552 3.3783 32.3438 5.7085 32.3438H59.7085Z" fill="#FFC66C"/>
<path d="M53.2529 54.2681L64.9374 65.9526C66.2509 67.266 68.3795 67.266 69.6923 65.9526C71.0057 64.6397 71.0057 62.5111 69.6923 61.1982L58.0078 49.5132L53.2529 54.2681Z" fill="#FF5D5D"/>
<path d="M60.5527 39.9375C60.5527 49.2572 52.9974 56.8125 43.6777 56.8125C34.358 56.8125 26.8027 49.2572 26.8027 39.9375C26.8027 30.6178 34.358 23.0625 43.6777 23.0625C52.9974 23.0625 60.5527 30.6178 60.5527 39.9375Z" fill="white"/>
<path d="M54.6465 39.9375C54.6465 45.9954 49.7356 50.9062 43.6777 50.9062C37.6199 50.9062 32.709 45.9954 32.709 39.9375C32.709 33.8796 37.6199 28.9688 43.6777 28.9688C49.7356 28.9688 54.6465 33.8796 54.6465 39.9375Z" fill="#72D8FF"/>
<path d="M43.6777 27.5625C36.8541 27.5625 31.3027 33.1139 31.3027 39.9375C31.3027 46.7611 36.8541 52.3125 43.6777 52.3125C50.5013 52.3125 56.0527 46.7611 56.0527 39.9375C56.0527 33.1139 50.5013 27.5625 43.6777 27.5625ZM43.6777 49.5C38.4048 49.5 34.1152 45.2104 34.1152 39.9375C34.1152 34.6646 38.4048 30.375 43.6777 30.375C48.9506 30.375 53.2402 34.6646 53.2402 39.9375C53.2402 45.2104 48.9506 49.5 43.6777 49.5Z" fill="black"/>
<path d="M43.6777 33.6099C42.901 33.6099 42.2715 34.2394 42.2715 35.0162C42.2715 35.7929 42.901 36.4224 43.6777 36.4224C45.6157 36.4224 47.1928 37.9995 47.1928 39.9375C47.1928 40.7142 47.8223 41.3438 48.5991 41.3438C49.3758 41.3438 50.0053 40.7142 50.0053 39.9375C50.0053 36.4482 47.167 33.6099 43.6777 33.6099Z" fill="black"/>
<path d="M8.75236 14.5409C8.39531 13.8515 7.54716 13.5818 6.85722 13.9383C6.16728 14.2954 5.89757 15.1441 6.25462 15.834L10.04 23.1465C10.285 23.62 10.7804 23.9095 11.31 23.9062C11.8428 23.898 12.3257 23.5893 12.5564 23.1086L14.8481 18.3373L17.3371 23.1465C17.5793 23.6134 18.0611 23.9062 18.5862 23.9062H18.6071C19.1405 23.898 19.6228 23.5893 19.8541 23.1086L23.3658 15.7961C23.702 15.0963 23.407 14.2558 22.7072 13.9197C22.0068 13.5835 21.1669 13.8785 20.8307 14.5788L18.539 19.3502L16.0495 14.5409C15.8045 14.0674 15.3101 13.7768 14.78 13.7812C14.2466 13.7895 13.7638 14.0982 13.5331 14.5788L11.2419 19.3502L8.75236 14.5409Z" fill="black"/>
<path d="M17.8005 6.75C18.1708 6.75 18.5333 6.59949 18.7948 6.33801C19.0568 6.07654 19.2068 5.71344 19.2068 5.34375C19.2068 4.97406 19.0568 4.61096 18.7948 4.34949C18.5333 4.08801 18.1708 3.9375 17.8005 3.9375C17.4308 3.9375 17.0683 4.08801 16.8068 4.34949C16.5448 4.61096 16.3943 4.97406 16.3943 5.34375C16.3943 5.71344 16.5448 6.07654 16.8068 6.33801C17.0683 6.59949 17.4308 6.75 17.8005 6.75Z" fill="black"/>
<path d="M72.0835 28.125V9.5625C72.0835 6.46106 69.5599 3.9375 66.4585 3.9375H23.7068C22.9307 3.9375 22.3006 4.56702 22.3006 5.34375C22.3006 6.12048 22.9307 6.75 23.7068 6.75H66.4585C68.0092 6.75 69.271 8.01178 69.271 9.5625V28.125C69.271 29.6757 68.0092 30.9375 66.4585 30.9375H59.7085C59.6678 30.9375 59.6283 30.9402 59.5887 30.9435C57.4184 27.1192 53.9099 24.1507 49.7038 22.678L51.7885 18.3378L54.278 23.1465C54.5197 23.614 55.0014 23.9062 55.5266 23.9062H55.548C56.0808 23.898 56.5637 23.5893 56.7944 23.1086L60.3062 15.7961C60.6423 15.0963 60.3474 14.2564 59.6475 13.9202C58.9477 13.5835 58.1072 13.8785 57.7711 14.5789L55.4799 19.3502L52.9904 14.541C52.7454 14.0674 52.2515 13.7769 51.7203 13.7818C51.187 13.7895 50.7047 14.0982 50.4739 14.5789L48.1822 19.3502L45.6932 14.541C45.3362 13.8516 44.4875 13.5818 43.7975 13.9389C43.1076 14.296 42.8384 15.1441 43.1949 15.834L46.3074 21.8463C45.4488 21.7222 44.571 21.6562 43.6783 21.6562C41.9496 21.6562 40.2759 21.8979 38.6895 22.3484L41.8365 15.7961C42.1727 15.0963 41.8777 14.2564 41.1773 13.9202C40.4775 13.5835 39.637 13.8785 39.3014 14.5789L37.0096 19.3502L34.5201 14.541C34.2751 14.0674 33.7835 13.7769 33.2501 13.7818C32.7173 13.7895 32.2344 14.0982 32.0037 14.5789L29.7125 19.3502L27.223 14.541C26.866 13.8516 26.0178 13.5818 25.3279 13.9389C24.6379 14.296 24.3682 15.1441 24.7253 15.834L28.5106 23.1465C28.7556 23.6201 29.2489 23.9095 29.7806 23.9062C30.3135 23.898 30.7963 23.5893 31.027 23.1086L33.3188 18.3378L35.8077 23.1465C35.8495 23.2273 35.9006 23.3004 35.9561 23.3701C32.5074 24.984 29.6422 27.6427 27.7707 30.9375H5.7085C4.15778 30.9375 2.896 29.6757 2.896 28.125V9.5625C2.896 8.01178 4.15778 6.75 5.7085 6.75H11.473C12.2498 6.75 12.8793 6.12048 12.8793 5.34375C12.8793 4.56702 12.2498 3.9375 11.473 3.9375H5.7085C2.60706 3.9375 0.0834961 6.46106 0.0834961 9.5625V28.125C0.0834961 31.227 2.60706 33.75 5.7085 33.75H26.4754C25.7778 35.6836 25.3965 37.7666 25.3965 39.9375C25.3965 50.018 33.5973 58.2188 43.6778 58.2188C46.9902 58.2188 50.0999 57.3333 52.7822 55.7864L63.9432 66.9474C64.8726 67.8768 66.0938 68.3416 67.3149 68.3416C68.536 68.3416 69.7571 67.8768 70.6866 66.9474C72.546 65.088 72.546 62.0629 70.6866 60.2034L66.3014 55.8182C65.7521 55.2695 64.8616 55.2689 64.3129 55.8182C63.7635 56.3676 63.7635 57.2574 64.3129 57.8068L68.6981 62.1925C69.4605 62.955 69.4605 64.1959 68.6981 64.9589C67.9356 65.7213 66.6947 65.7213 65.9323 64.9589L55.1409 54.167C59.296 50.8134 61.959 45.6812 61.959 39.9375C61.959 37.7666 61.5778 35.6836 60.8802 33.75H66.4585C69.5605 33.75 72.0835 31.2264 72.0835 28.125ZM43.6778 55.4062C35.1486 55.4062 28.209 48.4667 28.209 39.9375C28.209 31.4083 35.1486 24.4688 43.6778 24.4688C52.207 24.4688 59.1465 31.4083 59.1465 39.9375C59.1465 48.4667 52.2076 55.4062 43.6778 55.4062Z" fill="black"/>
<path d="M60.9769 52.4828C60.7155 52.7443 60.5649 53.1068 60.5649 53.4771C60.5649 53.8467 60.7155 54.2093 60.9769 54.4713C61.2401 54.7328 61.6015 54.8833 61.9712 54.8833C62.3409 54.8833 62.704 54.7328 62.9655 54.4713C63.2286 54.2093 63.3774 53.8467 63.3774 53.4771C63.3774 53.1068 63.2286 52.7443 62.9655 52.4828C62.704 52.2213 62.3425 52.0708 61.9712 52.0708C61.6015 52.0708 61.2384 52.2213 60.9769 52.4828Z" fill="black"/>
</g>
<defs>
<clipPath id="clip0_50_1207">
<rect width="72" height="72" fill="white" transform="translate(0.0834961)"/>
</clipPath>
</defs>
</svg>
