<svg width="73" height="72" viewBox="0 0 73 72" fill="none" xmlns="http://www.w3.org/2000/svg">
<g clip-path="url(#clip0_50_1059)">
<path d="M70.2042 1.05469H48.1278C47.6724 1.05469 47.3033 1.42383 47.3033 1.87917V13.1535C47.3033 13.951 47.0658 14.7303 46.621 15.3923L43.999 19.2942C43.8093 19.5765 44.09 19.9374 44.4103 19.8228L49.0112 18.1766C49.4451 18.0214 49.9026 17.9419 50.3634 17.9419H70.2042C70.6595 17.9419 71.0287 17.5728 71.0287 17.1174V1.87917C71.0287 1.42383 70.6595 1.05469 70.2042 1.05469Z" fill="#FFE270"/>
<path d="M70.2042 1.05469H67.0956C67.5509 1.05469 67.9201 1.42383 67.9201 1.87917V17.1174C67.9201 17.5728 67.5509 17.9419 67.0956 17.9419H70.2042C70.6596 17.9419 71.0287 17.5728 71.0287 17.1174V1.87917C71.0287 1.42383 70.6596 1.05469 70.2042 1.05469Z" fill="#FFD250"/>
<path d="M39.9528 28.9236H3.55994V19.2511C3.55994 9.20152 11.7068 1.05469 21.7564 1.05469C31.806 1.05469 39.9528 9.20152 39.9528 19.2511V28.9236Z" fill="#AD9CA9"/>
<path d="M33.4687 68.1328H10.0439C8.56076 68.1328 7.35828 66.9305 7.35828 65.4472V58.4315C7.35828 50.4797 13.8044 44.0336 21.7562 44.0336C29.7079 44.0336 36.1541 50.4797 36.1541 58.4315V65.4472C36.1542 66.9305 34.9519 68.1328 33.4687 68.1328Z" fill="#64CAFF"/>
<path d="M21.7564 49.2442C20.1661 49.2442 18.8768 47.955 18.8768 46.3646V39.6368H24.636V46.3646C24.636 47.955 23.3467 49.2442 21.7564 49.2442Z" fill="#FFB29F"/>
<path d="M34.0537 29.7622H9.45879C8.29878 29.7622 7.35828 28.8218 7.35828 27.6617V19.6217C7.35828 11.6699 13.8044 5.22382 21.7562 5.22382C29.7079 5.22382 36.1541 11.6699 36.1541 19.6217V27.6617C36.1542 28.8218 35.2138 29.7622 34.0537 29.7622Z" fill="#FF8254"/>
<path d="M21.7563 5.22382C21.167 5.22382 20.5861 5.2601 20.0153 5.32886C27.1459 6.1885 32.6722 12.2593 32.6722 19.6217V27.6617C32.6722 28.8217 31.7317 29.7622 30.5717 29.7622H34.0537C35.2137 29.7622 36.1542 28.8217 36.1542 27.6617V19.6217C36.1542 11.6699 29.7081 5.22382 21.7563 5.22382Z" fill="#FF6B31"/>
<path d="M21.7563 42.4287C15.4462 42.4287 10.3308 37.3133 10.3308 31.0032V22.3016C10.3308 21.9244 10.6095 21.6066 10.9829 21.5532C13.7888 21.1521 16.0953 20.1895 18.0219 18.7999C18.5506 18.4185 19.2812 18.8381 19.2169 19.4868L18.9807 21.8737C18.9268 22.4172 19.4482 22.8348 19.9684 22.6685C21.6032 22.1461 23.116 21.0341 24.5573 19.5761C25.0765 19.0509 25.9628 19.493 25.8467 20.2224L25.3996 23.0302C25.3303 23.4655 25.646 23.8755 26.0859 23.9036C28.3527 24.0484 30.2582 23.0747 31.82 21.0375C32.2623 20.4605 33.1815 20.7643 33.1815 21.4912V31.0032C33.1818 37.3134 28.0664 42.4287 21.7563 42.4287Z" fill="#FFE0CF"/>
<path d="M31.8203 21.0375C31.3463 21.6558 30.84 22.1746 30.3023 22.5955V31.0033C30.3023 36.8253 25.9466 41.6268 20.3167 42.3353C20.7886 42.3946 21.2684 42.4288 21.7564 42.4288C28.0665 42.4288 33.1819 37.3134 33.1819 31.0033V21.4913C33.1819 20.7642 32.2626 20.4606 31.8203 21.0375Z" fill="#FFCFC0"/>
<path d="M3.11708 34.1688L6.785 35.0396L8.97397 30.0848L6.785 24.6243L3.11708 25.4951C1.95706 25.7704 1.13806 26.8065 1.13806 27.9988V31.6649C1.13806 32.8572 1.95706 33.8933 3.11708 34.1688Z" fill="#64CAFF"/>
<path d="M9.41474 36.9844H7.70122C7.19526 36.9844 6.78491 36.5742 6.78491 36.0681V23.5956C6.78491 23.0897 7.19512 22.6793 7.70122 22.6793H9.4146C9.92057 22.6793 10.3309 23.0895 10.3309 23.5956V36.0681C10.3309 36.5742 9.92071 36.9844 9.41474 36.9844Z" fill="#00B8FF"/>
<path d="M40.3957 34.1688L36.7278 35.0395L34.4955 30.015L36.7278 24.6241L40.3957 25.4949C41.5557 25.7702 42.3747 26.8065 42.3747 27.9987V31.6648C42.3747 32.8572 41.5557 33.8933 40.3957 34.1688Z" fill="#64CAFF"/>
<path d="M34.0981 36.9844H35.8114C36.3174 36.9844 36.7278 36.5742 36.7278 36.0681V23.5956C36.7278 23.0897 36.3176 22.6793 35.8114 22.6793H34.0981C33.5921 22.6793 33.1818 23.0895 33.1818 23.5956V36.0681C33.1819 36.5742 33.5921 36.9844 34.0981 36.9844Z" fill="#00B8FF"/>
<path d="M52.5922 53.3677H25.654C24.4663 53.3677 23.5035 52.4049 23.5035 51.2173V32.6014C23.5035 31.4136 24.4664 30.4509 25.654 30.4509H52.5922C53.78 30.4509 54.7427 31.4138 54.7427 32.6014V51.2173C54.7428 52.4049 53.78 53.3677 52.5922 53.3677Z" fill="#6C5E69"/>
<path d="M52.5167 30.4508H49.4993C50.7288 30.4508 51.7254 31.3809 51.7254 32.5283V51.2902C51.7254 52.4375 50.7288 53.3676 49.4993 53.3676H52.5167C53.7461 53.3676 54.7428 52.4375 54.7428 51.2902V32.5283C54.7428 31.3809 53.746 30.4508 52.5167 30.4508Z" fill="#574D56"/>
<path d="M44.7531 53.3678L39.1232 49.8159L33.4931 53.3678L30.9281 59.2545H47.3181L44.7531 53.3678Z" fill="#6C5E69"/>
<path d="M45.7334 55.6177L44.753 53.3677H33.493L32.5126 55.6177H45.7334Z" fill="#574D56"/>
<path d="M63.3807 70.9453H14.8655V61.1757C14.8655 60.1147 15.7257 59.2545 16.7867 59.2545H61.4593C62.5203 59.2545 63.3805 60.1147 63.3805 61.1757V70.9453H63.3807Z" fill="#F5F0F3"/>
<path d="M61.4595 59.2545H58.4906C59.5516 59.2545 60.4118 60.1147 60.4118 61.1757V70.9453H63.3806V61.1757C63.3807 60.1147 62.5205 59.2545 61.4595 59.2545Z" fill="#E4DFE3"/>
<path d="M56.9373 59.2545H50.5588V58.8261C50.5588 57.0648 51.9867 55.6369 53.7481 55.6369C55.5094 55.6369 56.9373 57.0648 56.9373 58.8261V59.2545Z" fill="#6C5E69"/>
<path d="M62.0249 8.5295L57.4257 5.87422C56.68 5.44362 55.7478 5.98179 55.7478 6.84298V12.1537C55.7478 13.0149 56.68 13.553 57.4257 13.1224L62.0249 10.4672C62.7706 10.0366 62.7706 8.96009 62.0249 8.5295Z" fill="#FF77AB"/>
<path d="M70.2042 0H48.1277C47.0916 0 46.2485 0.843047 46.2485 1.87917V13.1534C46.2485 13.7434 46.0746 14.3142 45.7457 14.8039L43.1236 18.7058C42.7838 19.2113 42.8067 19.874 43.1808 20.3548C43.557 20.8384 44.195 21.0199 44.7657 20.8157L49.3668 19.1696C49.6872 19.0548 50.0226 18.9966 50.3634 18.9966H70.2043C71.2404 18.9966 72.0833 18.1536 72.0833 17.1174V1.87917C72.0833 0.843047 71.2404 0 70.2042 0ZM69.9739 16.8872H50.3634C49.7796 16.8872 49.2052 16.9869 48.6559 17.1835L46.065 18.1105L47.4964 15.9805C48.0601 15.1415 48.3579 14.1639 48.3579 13.1534V2.10938H69.9739V16.8872Z" fill="black"/>
<path d="M61.4594 58.1998H57.9458C57.642 56.1556 55.8754 54.5822 53.7481 54.5822C51.6209 54.5822 49.8541 56.1555 49.5505 58.1998H48.0091L46.3632 54.4224H52.5923C54.3596 54.4224 55.7975 52.9845 55.7975 51.2173V46.4797C55.7975 45.897 55.3254 45.425 54.7428 45.425C54.1602 45.425 53.6881 45.897 53.6881 46.4797V51.2173C53.6881 51.8216 53.1966 52.3131 52.5923 52.3131H25.6539C25.0497 52.3131 24.5582 51.8216 24.5582 51.2173V32.6014C24.5582 31.9971 25.0498 31.5055 25.6539 31.5055H52.5923C53.1966 31.5055 53.6881 31.9971 53.6881 32.6014V42.4014C53.6881 42.984 54.1602 43.4561 54.7428 43.4561C55.3254 43.4561 55.7975 42.984 55.7975 42.4014V32.6014C55.7975 30.834 54.3596 29.3961 52.5923 29.3961H43.4295V27.9987C43.4295 26.4396 42.4512 25.0824 41.0075 24.5766V19.251C41.0074 8.63592 32.3714 0 21.7564 0C15.9 0 10.4322 2.6197 6.75462 7.18748C6.38928 7.64128 6.461 8.30503 6.91466 8.67037C7.36859 9.03586 8.03248 8.96414 8.39755 8.5102C11.6728 4.44248 16.5418 2.10938 21.7564 2.10938C31.2083 2.10938 38.898 9.79917 38.898 19.251V24.0553L37.7823 23.7905V23.5955C37.7823 23.0543 37.563 22.5636 37.2089 22.2071V19.6215C37.2089 11.1009 30.2768 4.16883 21.7562 4.16883C13.2356 4.16883 6.30378 11.1011 6.30378 19.6217V22.2071C5.94955 22.5636 5.73031 23.0545 5.73031 23.5955V23.7905L4.61459 24.0553V19.251C4.61459 16.6224 5.19425 14.0999 6.33739 11.7536C6.59248 11.2299 6.37494 10.5986 5.85125 10.3435C5.3277 10.0884 4.6963 10.306 4.4412 10.8297C3.15659 13.4663 2.50522 16.2996 2.50522 19.2511V24.5766C1.06184 25.0823 0.083374 26.4396 0.083374 27.9989V31.665C0.083374 33.3534 1.23073 34.805 2.87337 35.1949L5.73017 35.8732V36.0682C5.73017 37.1551 6.61442 38.0392 7.70117 38.0392H9.41455C10.0462 38.0392 10.6094 37.7405 10.9704 37.2769C12.4887 39.8772 14.9203 41.8821 17.822 42.8483V43.4849C14.6534 44.3185 11.791 46.1715 9.72069 48.7394C7.51709 51.4724 6.30364 54.9145 6.30364 58.4318V59.3768C6.30364 59.9594 6.77586 60.4315 7.35833 60.4315C7.9408 60.4315 8.41301 59.9594 8.41301 59.3768V58.4318C8.41301 52.4987 12.2358 47.384 17.822 45.6765V46.3648C17.822 48.5342 19.5868 50.299 21.7562 50.299C21.9885 50.299 22.2204 50.2782 22.4485 50.2374V51.2175C22.4485 52.9847 23.8864 54.4226 25.6536 54.4226H31.8828L30.2369 58.1999H16.7868C15.1459 58.1999 13.8109 59.5349 13.8109 61.1758V67.0781H10.044C9.14469 67.0781 8.41301 66.3465 8.41301 65.4472V63.4546C8.41301 62.872 7.9408 62.4 7.35833 62.4C6.77586 62.4 6.30364 62.872 6.30364 63.4546V65.4472C6.30364 67.5096 7.98158 69.1875 10.044 69.1875H13.8108V70.9453C13.8108 71.5279 14.283 72 14.8655 72C15.4479 72 15.9201 71.5279 15.9201 70.9453V61.1757C15.9201 60.698 16.3088 60.3091 16.7867 60.3091H61.4593C61.937 60.3091 62.3258 60.698 62.3258 61.1757V70.9453C62.3258 71.5279 62.7979 72 63.3805 72C63.9631 72 64.4352 71.5279 64.4352 70.9453V61.1757C64.4353 59.5347 63.1004 58.1998 61.4594 58.1998ZM34.2364 23.734H35.6729V29.3961H34.2364V23.734ZM40.1519 26.521C40.8396 26.6843 41.32 27.2919 41.32 27.9989V29.3962H37.7824V25.9587L40.1519 26.521ZM21.7564 6.27834C29.1139 6.27834 35.0996 12.264 35.0996 19.6217V21.6246H34.2364V21.4912C34.2364 20.7031 33.7552 20.0309 33.0104 19.7782C32.2612 19.5238 31.4657 19.7667 30.9832 20.3958C29.7126 22.0531 28.2496 22.863 26.5197 22.863C26.5112 22.863 26.5029 22.863 26.4944 22.8628L26.8885 20.3882C27.0125 19.6088 26.6235 18.8457 25.9203 18.4897C25.2138 18.1319 24.3647 18.2707 23.8074 18.8348C22.5043 20.1528 21.2794 21.032 20.0766 21.51L20.2666 19.5907C20.3376 18.8727 19.9935 18.2031 19.3683 17.8432C18.7429 17.4832 17.9906 17.5223 17.405 17.9446C15.5142 19.3085 13.3647 20.1475 10.8337 20.509C10.1817 20.6023 9.64742 21.0427 9.40948 21.6246H8.41316V19.6217C8.41316 12.2642 14.3989 6.27834 21.7564 6.27834ZM3.36064 33.1426C2.67298 32.9794 2.19275 32.3717 2.19275 31.665V27.9989C2.19275 27.2921 2.67312 26.6843 3.36064 26.521L5.73031 25.9585V33.7051L3.36064 33.1426ZM9.27617 35.9297H7.83969V23.734H9.27617V35.9297ZM11.3855 31.0033V22.5595C13.8887 22.1684 16.1442 21.3172 18.1039 20.0247L17.9312 21.7699C17.8709 22.3785 18.1188 22.9715 18.5943 23.356C19.0711 23.7416 19.7045 23.8598 20.2896 23.6734C21.7512 23.2064 23.1888 22.3095 24.6645 20.9412L24.3582 22.8644C24.2779 23.3685 24.4147 23.8864 24.7337 24.2852C25.049 24.6797 25.5172 24.9242 26.0187 24.9562C28.3781 25.1079 30.429 24.221 32.127 22.3207V29.3961H25.6538C23.8864 29.3961 22.4487 30.834 22.4487 32.6014V41.3512C22.2182 41.3664 21.9868 41.3741 21.7564 41.3741C16.0378 41.3741 11.3855 36.7218 11.3855 31.0033ZM21.7564 48.1895C20.75 48.1895 19.9315 47.3709 19.9315 46.3646V43.3505C20.5273 43.4381 21.1366 43.4835 21.7564 43.4835C21.9867 43.4835 22.2179 43.477 22.4487 43.4644V48.0541C22.2301 48.144 21.998 48.1895 21.7564 48.1895ZM32.5381 58.1998L34.184 54.4224H44.0622L45.708 58.1998H32.5381ZM51.7074 58.1998C51.9755 57.3275 52.7889 56.6916 53.7481 56.6916C54.7073 56.6916 55.5206 57.3273 55.7889 58.1998H51.7074Z" fill="black"/>
<path d="M35.0494 47.0271C34.467 47.0271 33.9948 47.4992 33.9948 48.0818C33.9948 48.6644 34.467 49.1365 35.0494 49.1365H43.1965C43.7792 49.1365 44.2512 48.6644 44.2512 48.0818C44.2512 47.4992 43.7792 47.0271 43.1965 47.0271H35.0494Z" fill="black"/>
<path d="M55.7797 14.0359C56.12 14.2322 56.4931 14.3305 56.8663 14.3305C57.2396 14.3305 57.6131 14.2324 57.9532 14.0358L62.5524 11.3805C63.2328 10.9877 63.6391 10.2841 63.6391 9.49824C63.6391 8.71257 63.2328 8.00888 62.5524 7.61612L57.9532 4.96083C57.2732 4.56793 56.4605 4.56793 55.7799 4.96069C55.0994 5.3536 54.6931 6.05715 54.6931 6.84296V12.1537C54.6931 12.9395 55.0992 13.643 55.7797 14.0359ZM56.8025 6.84296C56.8025 6.82735 56.8025 6.80598 56.8346 6.78755C56.8476 6.77996 56.8583 6.77729 56.8675 6.77729C56.8807 6.77729 56.8905 6.78291 56.8985 6.78755L61.4977 9.44283C61.5112 9.45071 61.5297 9.46126 61.5297 9.49824C61.5297 9.53537 61.5112 9.54591 61.4977 9.55379L56.8985 12.2091C56.8846 12.2169 56.8662 12.2274 56.8346 12.2091C56.8025 12.1906 56.8025 12.1694 56.8025 12.1537V6.84296Z" fill="black"/>
</g>
<defs>
<clipPath id="clip0_50_1059">
<rect width="72" height="72" fill="white" transform="translate(0.083374)"/>
</clipPath>
</defs>
</svg>
