<svg width="73" height="72" viewBox="0 0 73 72" fill="none" xmlns="http://www.w3.org/2000/svg">
<g clip-path="url(#clip0_50_1145)">
<path d="M21.5515 36.8108L21.3549 36.6142L12.2822 31.5741C27.5122 16.3441 35.6493 18.4327 35.6493 18.4327L35.6503 18.4337C30.861 23.6767 25.1131 30.9227 21.5515 36.8108Z" fill="#FF6B6B"/>
<path d="M35.2703 50.5298C41.1585 46.9684 48.4056 41.2213 53.6485 36.4319C53.6485 36.4319 55.7384 44.57 40.5084 59.8L35.4681 50.7273L35.2703 50.5298Z" fill="#EE5253"/>
<path d="M56.6919 33.5355C55.7896 34.4376 54.7655 35.4137 53.6485 36.4317C48.4055 41.2211 41.1584 46.968 35.2702 50.5296L21.5515 36.8108C25.113 30.9227 30.861 23.6767 35.6504 18.4337C36.6687 17.3167 37.6444 16.2924 38.5466 15.3903C45.1747 8.76219 51.7897 4.81259 58.3159 2.79041L69.2917 13.7662C67.2697 20.2926 63.3201 26.9075 56.6919 33.5355Z" fill="#E4E8EB"/>
<path d="M69.2917 13.7664L66.2672 10.7419C64.245 17.2682 60.2952 23.8831 53.6672 30.5111C52.765 31.4134 51.7409 32.3893 50.6237 33.4073C45.3808 38.1969 38.1339 43.9438 32.2456 47.5053L35.27 50.5298C41.1583 46.9684 48.4054 41.2213 53.6483 36.4319C54.7653 35.4138 55.7895 34.4378 56.6917 33.5357C63.3199 26.9075 67.2695 20.2926 69.2917 13.7664Z" fill="#CAD0D7"/>
<path d="M69.2917 13.7663L58.3159 2.79054C62.5881 1.466 66.8219 0.968044 70.9954 1.08687C71.1142 5.2602 70.6164 9.49414 69.2917 13.7663Z" fill="#FF6B6B"/>
<path d="M70.9954 1.08675C69.9819 1.05793 68.9651 1.06608 67.9447 1.11305C67.7986 4.29455 67.2703 7.50713 66.2673 10.7419L69.2918 13.7663C70.6166 9.49416 71.1144 5.26022 70.9954 1.08675Z" fill="#EE5253"/>
<path d="M56.5517 15.5306C58.5002 17.4791 58.5002 20.6385 56.5517 22.587C54.6032 24.5357 51.4438 24.5357 49.4943 22.588C47.5457 20.6395 47.5467 17.4791 49.4943 15.5316C51.4438 13.5818 54.6031 13.5818 56.5517 15.5306Z" fill="#54A0FF"/>
<path d="M56.5518 15.5306C56.0106 14.9894 55.3756 14.5991 54.6995 14.3585C55.325 16.1166 54.9346 18.1553 53.5274 19.5626C52.1199 20.9701 50.0808 21.3604 48.322 20.7349C48.5625 21.4114 48.9529 22.0466 49.4944 22.588C51.4439 24.5357 54.6033 24.5357 56.5518 22.5871C58.5003 20.6384 58.5003 17.479 56.5518 15.5306Z" fill="#2E86DE"/>
<path d="M44.4529 27.6293C46.4014 29.5779 46.4023 32.7362 44.4527 34.6858C42.5042 36.6343 39.3449 36.6343 37.3973 34.6849C35.4478 32.7372 35.4478 29.5779 37.3964 27.6293C39.3449 25.6808 42.5042 25.6808 44.4529 27.6293Z" fill="#54A0FF"/>
<path d="M44.4539 27.6283C43.9127 27.0872 43.2777 26.6968 42.6015 26.4562C43.2271 28.2143 42.8367 30.2529 41.4294 31.6603C40.0218 33.0678 37.9829 33.4582 36.2241 32.8327C36.4644 33.5091 36.855 34.1444 37.3964 34.6858C39.346 36.6333 42.5054 36.6333 44.4539 34.6848C46.4026 32.7362 46.4026 29.5771 44.4539 27.6283Z" fill="#2E86DE"/>
<path d="M27.4035 50.7272L24.3793 47.7031L21.3551 44.679L18.8247 42.1486C19.4096 40.6063 20.357 38.7856 21.5517 36.8109L35.2704 50.5297C33.2966 51.7231 31.475 52.6718 29.9327 53.2565L27.4035 50.7272Z" fill="#576574"/>
<path d="M32.2459 47.5052C30.272 48.6989 28.4504 49.6474 26.9082 50.2322L27.4036 50.7275L29.9328 53.2568C31.4751 52.6724 33.2968 51.7236 35.2705 50.53L32.2459 47.5052Z" fill="#222F3E"/>
<path d="M22.363 49.7193C25.1463 52.5025 25.1461 57.017 22.363 59.8001C19.5786 62.5843 4.39394 73.255 1.61083 70.4717C-1.1734 67.6875 9.49807 52.5038 12.2823 49.7194C15.0654 46.936 19.5785 46.935 22.363 49.7193Z" fill="#FF6B6B"/>
<path d="M22.363 49.7192C21.8359 49.1923 21.2468 48.7655 20.6194 48.438C22.0217 51.1252 21.5947 54.5192 19.3384 56.7755C17.0811 59.0328 6.67385 66.4729 1.33179 67.7257C1.03943 68.973 1.08359 69.9448 1.61065 70.4717C4.39376 73.2549 19.5784 62.5844 22.3628 59.8001C25.1462 57.0167 25.1464 52.5025 22.363 49.7192Z" fill="#EE5253"/>
<path d="M19.3386 52.7435C20.4517 53.8566 20.4517 55.6629 19.3386 56.7758C18.2247 57.8899 9.09056 65.2195 7.97667 64.1055C6.86264 62.9916 14.1924 53.8574 15.3065 52.7437C16.4192 51.6306 18.2246 51.6296 19.3386 52.7435Z" fill="#FECA57"/>
<path d="M71.308 10.1804C71.8241 7.61147 72.085 4.95113 72.0822 2.27531C72.0822 1.87186 72.075 1.46278 72.0636 1.05638C72.0494 0.490359 71.5932 0.0341719 71.0258 0.0171563C70.6094 0.00576563 70.1988 0 69.8067 0H69.7811C67.7283 0 65.6795 0.153984 63.6922 0.457594C61.7904 0.748687 59.8939 1.18589 58.0444 1.75655C58.0117 1.76513 57.9796 1.77511 57.9477 1.78678C57.8096 1.82981 57.6711 1.87158 57.5335 1.91616C55.4407 2.59327 53.3536 3.46303 51.332 4.50084C49.2322 5.57859 47.1406 6.87023 45.1162 8.33864C44.8839 8.50542 44.7327 8.75348 44.687 9.03572C44.6416 9.31669 44.7084 9.60033 44.8766 9.83123C45.0775 10.1078 45.4014 10.2734 45.7434 10.2734C45.9701 10.2734 46.1855 10.2035 46.3695 10.0709C48.3167 8.66236 50.3169 7.42767 52.3158 6.39984C54.1806 5.44233 56.0977 4.63936 58.019 4.00669L68.0727 14.0603C67.7094 15.167 67.2967 16.2627 66.8301 17.3402C65.7082 19.9349 64.2526 22.5181 62.5048 25.0159C60.6742 27.6346 58.4645 30.2465 55.9355 32.78C54.3131 34.4024 52.2772 36.2756 50.0447 38.1959C47.731 40.1889 45.2518 42.1933 42.8752 43.994C40.466 45.8231 38.1692 47.4356 36.0466 48.7886C35.838 48.9216 35.6332 49.0503 35.4298 49.177L22.9053 36.6526C23.8741 35.0962 25.0033 33.4216 26.2709 31.6654C30.16 26.2637 35.2753 20.1734 39.3026 16.1474C40.5429 14.9057 41.8132 13.7337 43.0749 12.6617C43.5239 12.2795 43.5782 11.604 43.1975 11.1548C42.9935 10.9153 42.697 10.7769 42.3819 10.7769C42.1283 10.7769 41.883 10.8683 41.6904 11.0322C40.3802 12.1444 39.0688 13.3561 37.7899 14.6348C36.9829 15.4419 36.1266 16.3368 35.2394 17.2987C32.9185 17.1035 24.7595 17.5933 11.5452 30.8001C11.544 30.8012 11.5428 30.8024 11.5418 30.8035C11.5368 30.8088 11.5316 30.8136 11.5262 30.8188C11.5192 30.8258 11.5133 30.8333 11.5064 30.8406C11.4912 30.8568 11.4757 30.8732 11.4615 30.8905C11.4503 30.904 11.44 30.9181 11.4295 30.932C11.4191 30.9457 11.4087 30.9592 11.3988 30.9735C11.386 30.9922 11.3746 31.0115 11.3632 31.0307C11.3583 31.0393 11.3524 31.047 11.3476 31.0556C11.3461 31.0584 11.3451 31.0613 11.3437 31.0639C11.3322 31.0852 11.3219 31.107 11.3118 31.1288C11.3069 31.1396 11.3014 31.1503 11.2969 31.1611C11.2884 31.1811 11.2817 31.2012 11.2745 31.2216C11.2697 31.2352 11.2644 31.2488 11.2602 31.2625C11.2552 31.2791 11.2513 31.2957 11.2471 31.3125C11.2427 31.3303 11.2378 31.3477 11.2343 31.3656C11.2316 31.3786 11.2302 31.3921 11.2278 31.4052C11.2246 31.4263 11.2208 31.4474 11.2188 31.4685C11.2176 31.4803 11.2176 31.4921 11.2167 31.5038C11.2153 31.5262 11.2138 31.5487 11.2136 31.5709C11.2136 31.5849 11.2147 31.5989 11.2153 31.6129C11.216 31.6327 11.2163 31.6524 11.2181 31.6723C11.22 31.692 11.2232 31.7114 11.2261 31.731C11.2282 31.7447 11.2295 31.7586 11.2322 31.7723C11.2367 31.7966 11.243 31.8209 11.2493 31.845C11.2516 31.8537 11.2531 31.8625 11.2558 31.8711C11.2631 31.8966 11.272 31.9216 11.2813 31.9465C11.2839 31.9537 11.2859 31.961 11.2889 31.968C11.2979 31.9905 11.3083 32.0126 11.3187 32.0345C11.3232 32.0439 11.3272 32.0539 11.332 32.0633C11.3412 32.0811 11.3517 32.0982 11.362 32.1157C11.3697 32.1289 11.3769 32.1425 11.3853 32.1553C11.3939 32.1684 11.4035 32.1809 11.4125 32.194C11.4243 32.2106 11.4358 32.227 11.4485 32.2432C11.4565 32.2529 11.4652 32.2623 11.4734 32.2719C11.4884 32.2896 11.504 32.3072 11.5205 32.3239C11.5227 32.3263 11.5245 32.3287 11.5269 32.3311C11.5342 32.3384 11.5418 32.3443 11.5493 32.3513C11.5655 32.3665 11.5815 32.3817 11.5987 32.3961C11.612 32.4072 11.6259 32.4172 11.6396 32.4277C11.6535 32.4383 11.6673 32.4489 11.6819 32.4588C11.7002 32.4713 11.719 32.4825 11.7379 32.4937C11.7467 32.499 11.7549 32.5048 11.7639 32.5098L20.1117 37.1471C19.0992 38.8915 18.3329 40.4384 17.8262 41.7718C17.6766 42.1639 17.7721 42.6087 18.0701 42.9067L20.5981 45.4347C20.5985 45.4351 20.5989 45.4357 20.5994 45.4361C20.5998 45.4365 20.6003 45.4369 20.6008 45.4373L23.6222 48.4588C23.6227 48.4592 23.6231 48.4598 23.6235 48.4602C23.6239 48.4606 23.6245 48.4611 23.6249 48.4615L26.6464 51.4831C26.6469 51.4835 26.6474 51.4841 26.6478 51.4845C26.6482 51.4849 26.6488 51.4853 26.6492 51.4858L29.1771 54.0135C29.3766 54.213 29.6532 54.3271 29.9355 54.3271C30.0652 54.3271 30.1921 54.3029 30.3118 54.2572C31.6426 53.7507 33.1929 52.9848 34.9371 51.9725L39.5617 60.2977C39.5619 60.2982 39.5622 60.2986 39.5624 60.299L39.574 60.32C39.5766 60.3243 39.5798 60.3283 39.5823 60.3326C39.601 60.3653 39.6216 60.3966 39.6441 60.4275C39.651 60.437 39.6577 60.4467 39.6649 60.4558C39.6879 60.4856 39.7128 60.5145 39.7394 60.542C39.7438 60.5465 39.7478 60.5517 39.7523 60.5562L39.7528 60.5568C39.7829 60.5869 39.8146 60.6142 39.8471 60.6399C39.8572 60.6479 39.8679 60.6551 39.8783 60.6627C39.9041 60.6817 39.9304 60.6992 39.9575 60.7155C39.9675 60.7216 39.9775 60.7275 39.9876 60.7333C40.0237 60.7535 40.0606 60.7719 40.0983 60.7877C40.0991 60.788 40.1 60.7885 40.1008 60.7888C40.1412 60.8055 40.1824 60.819 40.224 60.8306C40.233 60.8331 40.242 60.8348 40.2509 60.8372C40.2835 60.8453 40.3164 60.8518 40.3496 60.8569C40.3611 60.8586 40.3724 60.8604 40.3839 60.8618C40.424 60.8663 40.4645 60.8697 40.5048 60.8697C40.5065 60.8698 40.5082 60.8701 40.5099 60.8701C40.5141 60.8701 40.5186 60.8694 40.5228 60.8692C40.5576 60.8688 40.5923 60.8667 40.6267 60.8628C40.641 60.8612 40.655 60.8588 40.6692 60.8566C40.6961 60.8527 40.7224 60.8476 40.749 60.8415C40.7626 60.8385 40.7761 60.8354 40.7896 60.8317C40.8238 60.8226 40.8577 60.8115 40.8907 60.7989C40.8953 60.7971 40.9001 60.796 40.9049 60.7942C40.9446 60.7783 40.9835 60.7597 41.0212 60.7389C41.0235 60.7376 41.0257 60.7369 41.0281 60.7358C41.0365 60.7313 41.044 60.7257 41.0521 60.7209C41.072 60.7092 41.0914 60.6975 41.1106 60.6843C41.1244 60.675 41.1375 60.6648 41.1506 60.6549C41.1651 60.6441 41.1797 60.6334 41.1937 60.6216C41.2102 60.608 41.2255 60.5936 41.241 60.5791C41.249 60.5715 41.2573 60.5651 41.265 60.5573C41.271 60.5514 41.2764 60.5458 41.2823 60.5399C41.2825 60.5396 41.2828 60.5395 41.2828 60.5395C54.4914 47.3235 54.9801 39.1638 54.7847 36.8429C55.7397 35.9616 56.6348 35.1055 57.4472 34.2928C60.0604 31.6839 62.3527 28.9766 64.2603 26.2423C66.0852 23.6291 67.6092 20.919 68.791 18.1875C69.3646 16.8629 69.8649 15.5139 70.2906 14.1507C70.3092 14.1023 70.3237 14.0528 70.335 14.0027C70.7237 12.7372 71.0508 11.4611 71.308 10.1804ZM33.2584 19.4991C32.6079 20.2389 31.9482 21.0047 31.2846 21.7922C28.8795 24.6435 26.5458 27.6245 24.5357 30.4144C23.2725 32.1709 22.1652 33.8062 21.2175 35.3147L14.0517 31.3341C18.2 27.3177 24.0014 22.5056 29.7578 20.3996C31.1943 19.8738 32.3636 19.6173 33.2584 19.4991ZM30.1898 52.003L28.9149 50.7281L29.1671 50.4758C29.5846 50.0583 29.5846 49.3812 29.1669 48.9638C28.7493 48.5464 28.0725 48.5463 27.6549 48.9639L27.4029 49.2161L25.8909 47.7041L26.1429 47.4519C26.5605 47.0343 26.5605 46.3573 26.1429 45.9398C25.7253 45.5224 25.0483 45.5224 24.6308 45.9398L24.3787 46.1918L22.8668 44.6799L23.1188 44.4278C23.5363 44.0101 23.5363 43.3332 23.1188 42.9157C22.7011 42.4983 22.0242 42.4983 21.6067 42.9157L21.3545 43.1678L20.0796 41.8929C20.493 40.9143 21.0616 39.7918 21.7734 38.5452L33.5378 50.3094C32.2913 51.0207 31.171 51.5879 30.1898 52.003ZM51.6827 42.3246C49.5768 48.0815 44.7651 53.8827 40.7485 58.0312L36.767 50.8639C38.9934 49.4671 41.4832 47.7283 44.1667 45.6975C47.0418 43.5198 49.9596 41.1323 52.5828 38.8247C52.4647 39.7191 52.2081 40.8883 51.6827 42.3246ZM60.3577 3.32086C61.5716 3.00839 62.8015 2.75639 64.0342 2.56908C65.9089 2.28544 67.852 2.14003 69.8066 2.13834C69.8521 2.13834 69.898 2.13834 69.942 2.13834C69.9434 2.18391 69.9434 2.22975 69.9434 2.27517C69.9393 4.82414 69.6925 7.34189 69.2093 9.75825C69.0783 10.4145 68.9278 11.0697 68.7598 11.7225L60.3577 3.32086Z" fill="black"/>
<path d="M17.3217 46.5626C15.1322 46.5626 13.0736 47.4151 11.5256 48.9635C9.98 50.509 6.56253 55.1316 3.93889 59.5496C2.41494 62.1156 1.32622 64.317 0.703109 66.0922C-0.168344 68.5747 -0.118844 70.2544 0.854562 71.228C1.367 71.7403 2.09023 72 3.00444 72C8.31584 72 20.8278 62.8466 23.1186 60.5564C26.3144 57.3599 26.3144 52.1595 23.1185 48.9635C21.57 47.4152 19.5116 46.5626 17.3217 46.5626ZM21.6063 59.0442C20.4324 60.2182 16.7872 62.976 12.9458 65.3849C8.4088 68.2298 4.78531 69.8615 3.00444 69.8615C2.69633 69.8615 2.45797 69.807 2.36656 69.7157C2.02133 69.3706 1.96114 67.0676 5.77742 60.6417C8.5137 56.0346 11.8071 51.7063 13.0377 50.4757C14.182 49.3314 15.7036 48.7011 17.3219 48.7011C18.9403 48.7011 20.4619 49.3314 21.6063 50.4758C23.9685 52.8379 23.9684 56.6819 21.6063 59.0442Z" fill="black"/>
<path d="M40.9246 25.0983C39.3063 25.0983 37.7846 25.7287 36.6404 26.873C35.4959 28.0174 34.8655 29.539 34.8655 31.1574C34.8655 32.7757 35.4959 34.2973 36.6403 35.4416C37.7847 36.586 39.3061 37.2163 40.9246 37.2163C42.5429 37.2163 44.0645 36.586 45.2087 35.4417C46.3534 34.2975 46.9837 32.7759 46.9836 31.1573C46.9836 29.539 46.3533 28.0174 45.2089 26.8732C44.0645 25.7285 42.5429 25.0983 40.9246 25.0983ZM43.6966 33.9293C42.9562 34.6698 41.9715 35.0776 40.9246 35.0776C39.8774 35.0776 38.893 34.67 38.1524 33.9293C37.4119 33.1889 37.004 32.2042 37.004 31.1573C37.004 30.1101 37.4118 29.1255 38.1526 28.385C38.893 27.6445 39.8776 27.2367 40.9246 27.2367C41.9717 27.2367 42.9562 27.6443 43.6966 28.3852C44.4373 29.1257 44.8451 30.1102 44.8451 31.1573C44.8452 32.2045 44.4374 33.189 43.6966 33.9293Z" fill="black"/>
<path d="M53.0228 25.118C54.6411 25.118 56.1626 24.4877 57.3069 23.3433C58.4514 22.1991 59.0817 20.6775 59.0817 19.059C59.0816 17.4406 58.4513 15.919 57.307 14.7748C56.1626 13.6302 54.6411 12.9999 53.0228 12.9999C51.4043 12.9999 49.8827 13.6302 48.7382 14.7746C46.376 17.137 46.376 20.9808 48.7383 23.3432C49.8827 24.4877 51.4042 25.118 53.0228 25.118ZM50.2503 16.287C50.991 15.5465 51.9757 15.1386 53.0228 15.1386C54.0699 15.1386 55.0544 15.5462 55.7948 16.287C56.5353 17.0274 56.9432 18.0121 56.9432 19.0592C56.9432 20.1064 56.5356 21.0908 55.7948 21.8313C55.0544 22.5719 54.0697 22.9797 53.0228 22.9797C51.9755 22.9797 50.991 22.5719 50.2505 21.8312C48.7217 20.3027 48.7217 17.8155 50.2503 16.287Z" fill="black"/>
<path d="M17.3221 50.8395C16.2749 50.8395 15.2903 51.2472 14.5498 51.9877C13.9143 52.6233 11.75 55.2668 9.93633 57.8029C8.8732 59.2895 8.07066 60.5384 7.55119 61.5156C6.91978 62.7027 6.38667 64.0287 7.22016 64.8623C7.41549 65.0575 7.76536 65.2901 8.32392 65.2901C8.77603 65.2901 9.97655 65.2901 14.8268 61.7504C17.2331 59.9946 19.5165 58.1102 20.0945 57.5322C21.6231 56.0035 21.6231 53.5164 20.0945 51.9877C19.354 51.2474 18.3693 50.8393 17.3221 50.8395ZM18.5822 56.02C18.1578 56.4445 16.0182 58.2309 13.6104 59.9908C11.4181 61.5932 10.0878 62.3832 9.30942 62.7729C9.6991 61.9946 10.489 60.6642 12.0915 58.4719C13.8515 56.0638 15.6375 53.9242 16.0621 53.5C16.3986 53.1633 16.8462 52.9781 17.3222 52.9781C17.7983 52.9781 18.2459 53.1634 18.5824 53.5C19.2771 54.1948 19.2771 55.3253 18.5822 56.02Z" fill="black"/>
</g>
<defs>
<clipPath id="clip0_50_1145">
<rect width="72" height="72" fill="white" transform="translate(0.0834961)"/>
</clipPath>
</defs>
</svg>
