<svg width="55" height="55" viewBox="0 0 55 55" fill="none" xmlns="http://www.w3.org/2000/svg">
<path d="M27.2048 54.5893C42.0597 54.5893 54.102 42.547 54.102 27.6921C54.102 12.8372 42.0597 0.794922 27.2048 0.794922C12.3499 0.794922 0.307617 12.8372 0.307617 27.6921C0.307617 42.547 12.3499 54.5893 27.2048 54.5893Z" fill="#232B58"/>
<path d="M21.932 34.6372C21.932 35.8521 22.0589 36.7775 22.3135 37.4185C22.568 38.0561 23.0258 38.6606 23.685 39.2295C24.3434 39.7967 25.1395 40.2345 26.074 40.5396C27.0085 40.8473 28.0815 41.0007 29.2963 41.0007C30.3669 41.0007 31.3619 40.8929 32.2832 40.6789C33.2028 40.4633 34.2319 40.0885 35.3687 39.5537V35.3719C34.0362 36.2476 32.697 36.6854 31.3503 36.6854C30.5941 36.6854 29.9199 36.5096 29.332 36.1555C28.8884 35.8952 28.5849 35.5452 28.4207 35.1074C28.2573 34.6696 28.1761 33.6803 28.1761 32.138V25.3168H34.4906V21.1425H28.1761V14.4067H24.4097C24.2397 15.7774 23.9305 16.9044 23.4818 17.7925C23.0332 18.6797 22.437 19.4385 21.6949 20.072C20.9527 20.7038 20.0621 21.1898 19.0206 21.5289V25.3168H21.932V34.6372Z" fill="white"/>
</svg>
