<svg width="54" height="54" viewBox="0 0 54 54" fill="none" xmlns="http://www.w3.org/2000/svg">
<path d="M27 53.7949C41.855 53.7949 53.8974 41.7525 53.8974 26.8975C53.8974 12.0424 41.855 0 27 0C12.1449 0 0.102539 12.0424 0.102539 26.8975C0.102539 41.7525 12.1449 53.7949 27 53.7949Z" fill="#232B58"/>
<path d="M39.2782 29.5502V38.6302H34.0135V30.158C34.0135 28.0311 33.2531 26.5783 31.3475 26.5783C29.8931 26.5783 29.029 27.5568 28.6468 28.5037C28.5083 28.8421 28.4726 29.3122 28.4726 29.7865V38.6302H23.2079C23.2079 38.6302 23.2784 24.2814 23.2079 22.7962H28.4735V25.0401C28.4627 25.0575 28.4478 25.0749 28.4386 25.0923H28.4735V25.0401C29.1733 23.9638 30.4205 22.4247 33.2183 22.4247C36.6819 22.4247 39.2782 24.6877 39.2782 29.5502ZM17.7002 15.1641C15.8992 15.1641 14.7208 16.3465 14.7208 17.8997C14.7208 19.4196 15.8652 20.6361 17.6306 20.6361H17.6646C19.5005 20.6361 20.6423 19.4196 20.6423 17.8997C20.6083 16.3465 19.5021 15.1641 17.7002 15.1641ZM15.0343 38.631H20.2973V22.797H15.0343V38.631Z" fill="white"/>
</svg>
