<svg width="55" height="55" viewBox="0 0 55 55" fill="none" xmlns="http://www.w3.org/2000/svg">
<path d="M27.7954 54.5925C42.6512 54.5925 54.6942 42.5495 54.6942 27.6937C54.6942 12.8379 42.6512 0.794922 27.7954 0.794922C12.9396 0.794922 0.896606 12.8379 0.896606 27.6937C0.896606 42.5495 12.9396 54.5925 27.7954 54.5925Z" fill="#232B58"/>
<path d="M20.6669 34.7958H22.444V23.6071C21.7773 23.7954 21.1769 24.1378 20.6669 24.5873V34.7958ZM17.1137 27.2258V34.7825L17.2282 34.795H18.8907V27.2142H17.2282L17.1137 27.2258ZM13.5597 31.0038C13.5597 32.3803 14.2761 33.5727 15.3367 34.2386V27.7723C14.2761 28.4373 13.5597 29.6306 13.5597 31.0038ZM24.221 34.7958H25.998V24.0997C25.4665 23.768 24.8653 23.5499 24.221 23.4653V34.7958ZM38.3211 27.2142H37.3218C37.3724 26.9049 37.4048 26.5915 37.4048 26.2673C37.4048 23.1262 34.9412 20.5813 31.9021 20.5813C30.2536 20.5813 28.7833 21.34 27.775 22.5291V34.7958H38.3219C40.3469 34.7958 41.9904 33.0992 41.9904 31.0038C41.9895 28.9108 40.346 27.2142 38.3211 27.2142Z" fill="white"/>
</svg>
