<svg width="55" height="55" viewBox="0 0 55 55" fill="none" xmlns="http://www.w3.org/2000/svg">
<path d="M27.4101 54.5898C42.2652 54.5898 54.3076 42.5474 54.3076 27.6924C54.3076 12.8373 42.2652 0.794922 27.4101 0.794922C12.5551 0.794922 0.512695 12.8373 0.512695 27.6924C0.512695 42.5474 12.5551 54.5898 27.4101 54.5898Z" fill="#232B58"/>
<path d="M27.4101 14.6047C20.1827 14.6047 14.3234 20.464 14.3234 27.6915C14.3234 34.919 20.1827 40.7783 27.4101 40.7783C34.6376 40.7783 40.4969 34.919 40.4969 27.6915C40.4969 20.464 34.6385 14.6047 27.4101 14.6047ZM33.4303 33.516C33.1682 33.909 32.7105 34.0392 32.3183 33.7772C29.2427 31.8799 25.3819 31.4869 20.8012 32.5342C20.3427 32.6652 19.9505 32.3376 19.8194 31.9454C19.6884 31.4877 20.016 31.0946 20.4082 30.9636C25.381 29.8508 29.6996 30.3093 33.1027 32.4031C33.5613 32.5997 33.6268 33.1229 33.4303 33.516ZM35.0008 29.9163C34.6733 30.3749 34.0845 30.5706 33.6268 30.2439C30.0935 28.0846 24.7276 27.4303 20.6055 28.7388C20.0823 28.8698 19.4927 28.6078 19.3617 28.0846C19.2307 27.5605 19.4927 26.9717 20.016 26.8407C24.7931 25.4012 30.6822 26.121 34.7388 28.6078C35.1318 28.8043 35.3284 29.4586 35.0008 29.9163ZM35.1318 26.252C30.9443 23.766 23.9423 23.5039 19.9513 24.7469C19.297 24.9435 18.642 24.5504 18.4463 23.9617C18.2497 23.3074 18.642 22.6532 19.2315 22.4566C23.8777 21.0826 31.533 21.3438 36.3757 24.2237C36.9644 24.5512 37.1609 25.3365 36.8342 25.9253C36.5059 26.383 35.7206 26.5795 35.1318 26.252Z" fill="white"/>
</svg>
