<svg width="55" height="54" viewBox="0 0 55 54" fill="none" xmlns="http://www.w3.org/2000/svg">
<path d="M27.2051 53.7949C42.0601 53.7949 54.1025 41.7525 54.1025 26.8974C54.1025 12.0424 42.0601 0 27.2051 0C12.35 0 0.307617 12.0424 0.307617 26.8974C0.307617 41.7525 12.35 53.7949 27.2051 53.7949Z" fill="#232B58"/>
<path d="M28.8917 32.7443C27.312 32.6224 26.6487 31.8388 25.4098 31.0867C24.729 34.659 23.8965 38.0837 21.432 39.8731C20.67 34.4732 22.549 30.4183 23.4213 26.113C21.9345 23.6104 23.6004 18.5721 26.7366 19.8134C30.5966 21.34 23.3948 29.1206 28.2292 30.0925C33.2766 31.1074 35.3372 21.3342 32.2069 18.1558C27.6844 13.5661 19.0422 18.0513 20.1053 24.6213C20.364 26.2275 22.0241 26.715 20.7686 28.9316C17.8738 28.2906 17.0106 26.0077 17.1217 22.9645C17.3009 17.9825 21.5979 14.494 25.9082 14.0114C31.3595 13.4011 36.4758 16.0131 37.1823 21.1402C37.9758 26.9265 34.7203 33.1937 28.8917 32.7443Z" fill="white"/>
</svg>
