<svg width="55" height="54" viewBox="0 0 55 54" fill="none" xmlns="http://www.w3.org/2000/svg">
<path d="M27.7949 53.7949C42.65 53.7949 54.6923 41.7525 54.6923 26.8975C54.6923 12.0424 42.65 0 27.7949 0C12.9399 0 0.897461 12.0424 0.897461 26.8975C0.897461 41.7525 12.9399 53.7949 27.7949 53.7949Z" fill="#232B58"/>
<path d="M14.8126 20.0357L21.3063 24.1726L27.7991 20.0357L21.3063 15.8987L14.8126 20.0357Z" fill="white"/>
<path d="M27.7899 20.0357L34.2827 24.1726L40.7763 20.0357L34.2835 15.8987L27.7899 20.0357Z" fill="white"/>
<path d="M14.8126 28.2517L21.3063 32.3887L27.7991 28.2517L21.3063 24.1147L14.8126 28.2517Z" fill="white"/>
<path d="M34.2835 24.1147L27.7899 28.2517L34.2835 32.3887L40.7763 28.2517L34.2835 24.1147Z" fill="white"/>
<path d="M21.3478 33.7594L27.8414 37.8964L34.335 33.7594L27.8414 29.6233L21.3478 33.7594Z" fill="white"/>
</svg>
