<svg width="55" height="54" viewBox="0 0 55 54" fill="none" xmlns="http://www.w3.org/2000/svg">
<path d="M27.8204 53.7949C42.6755 53.7949 54.7179 41.7525 54.7179 26.8974C54.7179 12.0424 42.6755 0 27.8204 0C12.9654 0 0.922974 12.0424 0.922974 26.8974C0.922974 41.7525 12.9654 53.7949 27.8204 53.7949Z" fill="#232B58"/>
<path d="M27.8204 16.5097C31.2036 16.5097 31.6041 16.5222 32.9408 16.5835C34.1764 16.6399 34.8472 16.8464 35.2942 17.0197C35.8854 17.2494 36.3075 17.5239 36.7511 17.9675C37.1947 18.4112 37.4692 18.8332 37.6989 19.4245C37.8722 19.8714 38.0787 20.5422 38.1351 21.7778C38.1956 23.1137 38.2089 23.5142 38.2089 26.8982C38.2089 30.2815 38.1956 30.682 38.1351 32.0187C38.0787 33.2542 37.8722 33.9251 37.6989 34.3712C37.4692 34.9632 37.1947 35.3845 36.7511 35.8281C36.3075 36.2717 35.8854 36.5462 35.2942 36.7759C34.8472 36.9492 34.1764 37.1557 32.9408 37.2121C31.605 37.2726 31.2045 37.2859 27.8204 37.2859C24.4363 37.2859 24.0367 37.2734 22.7 37.2121C21.4644 37.1557 20.7936 36.9492 20.3475 36.7759C19.7554 36.5462 19.3342 36.2717 18.8905 35.8281C18.4469 35.3845 18.1724 34.9624 17.9427 34.3712C17.7694 33.9251 17.5629 33.2542 17.5066 32.0187C17.446 30.6828 17.4327 30.2823 17.4327 26.8982C17.4327 23.515 17.446 23.1145 17.5066 21.7778C17.5629 20.5422 17.7694 19.8714 17.9427 19.4245C18.1724 18.8332 18.4469 18.4112 18.8905 17.9675C19.3342 17.5239 19.7562 17.2494 20.3475 17.0197C20.7936 16.8464 21.4652 16.6399 22.7 16.5835C24.0367 16.5222 24.4372 16.5097 27.8204 16.5097ZM27.8204 14.2261C24.3791 14.2261 23.9479 14.241 22.5963 14.3024C21.2472 14.3637 20.3267 14.5785 19.5207 14.8911C18.6874 15.2153 17.9809 15.6482 17.276 16.353C16.5712 17.057 16.1383 17.7644 15.8149 18.5977C15.5015 19.4037 15.2876 20.325 15.2262 21.6733C15.164 23.0249 15.1499 23.4561 15.1499 26.8974C15.1499 30.3387 15.164 30.7699 15.2262 32.1215C15.2876 33.4706 15.5023 34.3911 15.8149 35.1971C16.1383 36.0304 16.572 36.7369 17.276 37.4418C17.9809 38.1466 18.6874 38.5795 19.5207 38.9037C20.3267 39.2163 21.248 39.4311 22.5963 39.4924C23.9479 39.5538 24.3791 39.5687 27.8204 39.5687C31.2617 39.5687 31.6929 39.5538 33.0445 39.4924C34.3936 39.4311 35.3141 39.2163 36.1201 38.9037C36.9534 38.5803 37.6599 38.1466 38.3648 37.4418C39.0688 36.7369 39.5025 36.0304 39.8267 35.1971C40.1401 34.3911 40.3541 33.4698 40.4154 32.1215C40.4768 30.7699 40.4917 30.3387 40.4917 26.8974C40.4917 23.4561 40.4776 23.0249 40.4154 21.6733C40.3541 20.3242 40.1393 19.4037 39.8267 18.5977C39.5025 17.7644 39.0696 17.0579 38.3648 16.353C37.6599 15.6482 36.9534 15.2153 36.1201 14.8911C35.3141 14.5785 34.3928 14.3637 33.0445 14.3024C31.6929 14.241 31.2617 14.2261 27.8204 14.2261Z" fill="white"/>
<path d="M27.8204 20.3914C24.2265 20.3914 21.3135 23.3044 21.3135 26.8983C21.3135 30.4921 24.2265 33.4052 27.8204 33.4052C31.4142 33.4052 34.3273 30.4921 34.3273 26.8983C34.3273 23.3044 31.4142 20.3914 27.8204 20.3914ZM27.8204 31.1215C25.4878 31.1215 23.5963 29.23 23.5963 26.8974C23.5963 24.5648 25.4869 22.6734 27.8204 22.6734C30.153 22.6734 32.0444 24.564 32.0444 26.8974C32.0444 29.2309 30.153 31.1215 27.8204 31.1215Z" fill="white"/>
<path d="M36.1052 20.1336C36.1052 20.9736 35.4244 21.6544 34.5844 21.6544C33.7444 21.6544 33.0636 20.9736 33.0636 20.1336C33.0636 19.2936 33.7444 18.6128 34.5844 18.6128C35.4244 18.6136 36.1052 19.2944 36.1052 20.1336Z" fill="white"/>
</svg>
