<svg width="55" height="54" viewBox="0 0 55 54" fill="none" xmlns="http://www.w3.org/2000/svg">
<path d="M27.3846 53.7949C42.2397 53.7949 54.2821 41.7525 54.2821 26.8975C54.2821 12.0424 42.2397 0 27.3846 0C12.5296 0 0.487183 12.0424 0.487183 26.8975C0.487183 41.7525 12.5296 53.7949 27.3846 53.7949Z" fill="#232B58"/>
<path fill-rule="evenodd" clip-rule="evenodd" d="M39.9722 33.1977V33.1919C39.9664 33.1853 39.9606 33.1853 39.9482 33.1737C39.9482 33.1737 39.9481 33.1737 39.9423 33.1737C39.6355 32.9788 39.3229 32.9498 39.1272 32.8785C39.1214 32.8785 39.1156 32.8784 39.1156 32.8726C37.7814 32.4531 36.6304 31.5442 35.7689 30.4347C35.2904 29.8145 34.8891 29.1478 34.6237 28.4338C34.6237 28.428 34.6237 28.428 34.6237 28.4222C34.5176 28.1154 34.5118 27.7729 34.6652 27.5656C34.6652 27.5656 34.671 27.5656 34.671 27.5598C34.9131 27.2174 35.3559 26.9993 35.8219 26.8276C35.8286 26.8276 35.8286 26.8276 35.8286 26.8276C36.3543 26.6444 36.9198 26.4379 37.3867 26.0249C37.3925 26.0249 37.3925 26.0191 37.3983 26.0191C37.4688 25.9545 37.5575 25.8657 37.6222 25.7297C37.6338 25.6999 37.652 25.665 37.6578 25.6236C37.6935 25.5 37.6935 25.3458 37.6288 25.2164C37.6288 25.2106 37.6288 25.2106 37.6288 25.2106C37.4928 24.9395 37.2631 24.7919 37.0857 24.6907H37.0799C36.7905 24.5199 36.4488 24.5075 36.147 24.6078H36.1412C35.8228 24.7023 35.5574 24.8201 35.3153 24.8499C35.3095 24.8499 35.3037 24.8499 35.297 24.8557C34.9546 24.9146 34.6188 24.9262 34.3584 24.8317C34.3526 24.796 34.3525 24.7197 34.3409 24.6252H34.3468C34.3235 24.0589 34.3766 23.4742 34.3824 22.8664C34.3824 22.8664 34.3824 22.8664 34.3824 22.8606C34.4123 21.9402 34.4471 20.9957 34.3119 20.0396C34.3119 20.0338 34.3119 20.028 34.3119 20.028C34.0109 18.4168 32.9777 17.0295 31.6675 16.1091C30.7172 15.4366 29.5845 15.0643 28.4336 14.9581C28.038 14.9225 27.6541 14.9109 27.271 14.9109C25.7187 14.9225 24.1075 15.3305 22.8504 16.3156C21.9059 17.0536 21.1621 18.0337 20.6961 19.125V19.1308C20.2475 20.2519 20.289 21.4501 20.3478 22.5596C20.3827 23.3391 20.4714 24.0945 20.4009 24.8143C20.3951 24.8383 20.3951 24.8499 20.3893 24.8615C20.041 24.9262 19.6571 24.9022 19.2798 24.8317H19.274C19.0145 24.7902 18.7367 24.6841 18.4241 24.5954C18.4183 24.5954 18.4124 24.5954 18.4058 24.5896C18.1048 24.5249 17.8038 24.607 17.5791 24.7786C17.5733 24.7786 17.5675 24.7786 17.5675 24.7844C17.5617 24.7902 17.5559 24.7902 17.5559 24.796C17.3668 24.9138 17.1131 25.1211 17.1015 25.4752C17.0956 25.4992 17.1015 25.5166 17.1015 25.5398C17.1073 25.5398 17.1014 25.5456 17.1072 25.5456C17.1421 25.7521 17.2723 25.9055 17.39 26.0059C17.5078 26.1062 17.6147 26.1717 17.6794 26.2248C17.6852 26.2248 17.691 26.2306 17.6968 26.2364C18.2632 26.6145 18.8892 26.7795 19.4382 26.9918C19.8155 27.1568 20.1405 27.4106 20.2177 27.7356C20.3122 28.1428 20.1347 28.6154 19.9109 29.0698V29.0756C19.2972 30.2797 18.3876 31.3303 17.2665 32.1031C16.6761 32.5045 16.0152 32.8055 15.3244 32.9887C15.3186 32.9887 15.307 32.9954 15.2946 33.0003C15.1528 33.0534 14.8169 33.0833 14.6047 33.4017C14.593 33.4257 14.5806 33.449 14.569 33.4788C14.4985 33.6795 14.5806 33.8984 14.681 34.0219C14.7755 34.1339 14.8816 34.2052 14.9761 34.2525C14.9819 34.2525 14.9877 34.2591 14.9936 34.2591C15.5715 34.5949 16.2092 34.7367 16.788 34.8843C16.7938 34.8843 16.7938 34.8901 16.7938 34.8901C17.2126 34.9789 17.6023 35.0319 17.9157 35.1679C17.9274 35.192 17.963 35.2981 18.0335 35.4747C18.1396 35.7932 18.1869 36.1655 18.3046 36.561C18.3403 36.6672 18.4348 36.7559 18.5468 36.7791C18.8121 36.838 18.9539 36.7493 18.978 36.7434C18.9896 36.7434 19.0012 36.7434 19.0136 36.7434C19.9813 36.5726 20.9557 36.425 21.8471 36.6431C22.78 36.891 23.5942 37.5345 24.5089 38.0835V38.0901C25.1167 38.4674 25.8191 38.8397 26.6342 38.8687C26.6342 38.8687 26.6342 38.8687 26.64 38.8687C27.2536 38.9044 27.8498 38.8629 28.4402 38.8281C28.446 38.8281 28.446 38.8281 28.4518 38.8281C28.9535 38.7808 29.4378 38.6092 29.8681 38.3438C29.8739 38.338 29.8806 38.3322 29.8864 38.3322C30.8483 37.7833 31.6982 37.1282 32.6369 36.7144H32.6427C32.9437 36.6083 33.3276 36.6141 33.7464 36.5851C33.7522 36.5851 33.758 36.5851 33.758 36.5851C34.5375 36.561 35.3103 36.6025 36.0831 36.7028C36.1064 36.7095 36.1362 36.7095 36.1594 36.7028C36.2656 36.6912 36.3717 36.6199 36.4248 36.5552C36.4836 36.4905 36.4961 36.4308 36.5077 36.3902C36.5317 36.3131 36.5492 36.2783 36.5143 36.3429C36.5259 36.3197 36.5384 36.3015 36.5442 36.2782C36.686 35.8122 36.7623 35.3926 36.9928 35.1331C37.0931 35.0328 37.2706 34.9855 37.4713 34.9855C37.4829 34.9855 37.5003 34.9855 37.5127 34.9855C38.1852 34.9092 38.7872 34.6671 39.3602 34.4656C39.3669 34.4598 39.3785 34.4598 39.3835 34.4598C39.5966 34.3652 39.915 34.2591 40.1331 33.9581C40.1331 33.9581 40.1331 33.9581 40.1331 33.9523C40.3138 33.6994 40.2259 33.3503 39.9722 33.1977Z" fill="white"/>
</svg>
