<svg width="55" height="54" viewBox="0 0 55 54" fill="none" xmlns="http://www.w3.org/2000/svg">
<path d="M27.6153 53.7949C42.4704 53.7949 54.5128 41.7525 54.5128 26.8974C54.5128 12.0424 42.4704 0 27.6153 0C12.7603 0 0.717896 12.0424 0.717896 26.8974C0.717896 41.7525 12.7603 53.7949 27.6153 53.7949Z" fill="#232B58"/>
<path d="M24.2612 40.2032H29.6196V26.7856H33.3577L33.7566 22.2929H29.6196C29.6196 22.2929 29.6196 20.6153 29.6196 19.7339C29.6196 18.675 29.8327 18.2562 30.8568 18.2562C31.681 18.2562 33.7566 18.2562 33.7566 18.2562V13.5935C33.7566 13.5935 30.6992 13.5935 30.0466 13.5935C26.0597 13.5935 24.262 15.3498 24.262 18.7106C24.262 21.6386 24.262 22.2929 24.262 22.2929H21.475V26.842H24.262L24.2612 40.2032Z" fill="white"/>
</svg>
