<svg id="Layer_5" enable-background="new 0 0 62 62" height="512" viewBox="0 0 62 62" width="512" xmlns="http://www.w3.org/2000/svg"><g><g><g><path d="m31.39 24.15c.17.54.4 1.06.69 1.55-.07.05-.14.12-.2.18-.54.54-.88 1.29-.88 2.12 0 .41.08.8.23 1.15-2.14 1.18-4.61 1.85-7.23 1.85-8.28 0-15-6.72-15-15s6.72-15 15-15c6.52 0 12.07 4.16 14.14 9.98-.92.81-1.67 1.83-2.14 3.02-.39.15-.75.33-1.1.54-.33-2.45-1.45-4.66-3.12-6.32-1.99-1.99-4.74-3.22-7.78-3.22s-5.79 1.23-7.78 3.22-3.22 4.74-3.22 7.78 1.23 5.79 3.22 7.78 4.74 3.22 7.78 3.22c2.84 0 5.43-1.08 7.39-2.85z" fill="#ccd1d9"/></g><g><path d="m57 23h-12.1c-2.15 0-4.03-1.15-5.06-2.87l-2.28.88c-1.54.6-2.56 2.08-2.56 3.73v.26h-1c-.73 0-1.4.26-1.92.7-.29-.49-.52-1.01-.69-1.55-.26-.78-.39-1.6-.39-2.44v-.32c0-1.63.5-3.17 1.37-4.46.65-.96 1.51-1.78 2.53-2.39.35-.21.71-.39 1.1-.54.47-1.19 1.22-2.21 2.14-3.02 1.42-1.25 3.27-1.98 5.25-1.98h5.59c3.32 0 6.32 1.34 8.5 3.52s3.52 5.18 3.52 8.5c0 1.65-.34 3.27-.98 4.76v.01c-.53-.49-1.24-.79-2.02-.79h-1z" fill="#b27946"/></g><g><path d="m24 5c3.04 0 5.79 1.23 7.78 3.22 1.67 1.66 2.79 3.87 3.12 6.32-1.02.61-1.88 1.43-2.53 2.39-.87 1.29-1.37 2.83-1.37 4.46v.32c0 .84.13 1.66.39 2.44-1.96 1.77-4.55 2.85-7.39 2.85-3.04 0-5.79-1.23-7.78-3.22s-3.22-4.74-3.22-7.78 1.23-5.79 3.22-7.78 4.74-3.22 7.78-3.22z" fill="#75b1f2"/></g><g><path d="m47 47 2 8-3 3-3-3 2-8z" fill="#e6e9ed"/></g><g><path d="m46 58 3-3-2-8 4 3 .68-5.43c.76.47 1.47 1.02 2.1 1.65 1.99 1.99 3.22 4.74 3.22 7.78v7h-22v-7c0-4 2.13-7.5 5.32-9.43l.68 5.43 4-3-2 8z" fill="#fcd770"/></g><g><path d="m51.68 44.57-.68 5.43-4-3 2.13-3.55c.9.27 1.76.65 2.55 1.12z" fill="#ffc729"/></g><g><path d="m42.87 43.45 2.13 3.55-4 3-.68-5.43c.79-.47 1.65-.85 2.55-1.12z" fill="#ffc729"/></g><g><path d="m49.13 43.45-2.13 3.55h-2l-2.13-3.55c.99-.29 2.04-.45 3.13-.45s2.14.16 3.13.45z" fill="#f0d0b4"/></g><g><path d="m35 25v6h-1c-1.25 0-2.32-.76-2.77-1.85-.15-.35-.23-.74-.23-1.15 0-.83.34-1.58.88-2.12.06-.06.13-.13.2-.18.52-.44 1.19-.7 1.92-.7z" fill="#f0d0b4"/></g><g><path d="m57 25v6 2c0 5.52-4.48 10-10 10h-1-1c-5.52 0-10-4.48-10-10v-2-6-.26c0-1.65 1.02-3.13 2.56-3.73l2.28-.88c1.03 1.72 2.91 2.87 5.06 2.87h12.1z" fill="#f0d0b4"/></g><g><path d="m60.02 25.79c.6.54.98 1.33.98 2.21 0 .83-.34 1.58-.88 2.12s-1.29.88-2.12.88h-1v-6h1c.78 0 1.49.3 2.02.79z" fill="#f0d0b4"/></g><g><path d="m27 39v22h-6v-20z" fill="#ff826e"/></g><g><path d="m17 43v18h-6v-16z" fill="#ff826e"/></g><g><path d="m7 47v14h-6v-12z" fill="#ff826e"/></g><g><path d="m42 35h8c0 1.1-.45 2.1-1.17 2.83-.73.72-1.73 1.17-2.83 1.17-2.21 0-4-1.79-4-4z" fill="#ff826e"/></g></g><g><path d="m41 35c0 2.757 2.243 5 5 5s5-2.243 5-5v-1h-10zm7.829 1c-.413 1.164-1.525 2-2.829 2s-2.416-.836-2.829-2z"/><path d="m43 30h2c0-2.206-1.794-4-4-4s-4 1.794-4 4h2c0-1.103.897-2 2-2s2 .897 2 2z"/><path d="m51 26c-2.206 0-4 1.794-4 4h2c0-1.103.897-2 2-2s2 .897 2 2h2c0-2.206-1.794-4-4-4z"/><path d="m62 21.021c0-7.18-5.841-13.021-13.021-13.021h-5.595c-1.752 0-3.407.503-4.81 1.396-2.571-5.67-8.267-9.396-14.574-9.396-8.822 0-16 7.178-16 16s7.178 16 16 16c2.378 0 4.732-.534 6.865-1.546.732.934 1.858 1.546 3.135 1.546v.999c-.001 2.938 1.144 5.701 3.222 7.779 1.051 1.051 2.278 1.861 3.613 2.407-4.035 1.935-6.835 6.049-6.835 10.815v8h24v-8c0-4.771-2.805-8.888-6.846-10.82 4.01-1.643 6.845-5.583 6.846-10.179v-1.001c2.206 0 4-1.794 4-4 0-.916-.321-1.75-.84-2.425.546-1.46.84-2.986.84-4.554zm-38 8.979c-7.72 0-14-6.28-14-14s6.28-14 14-14c5.706 0 10.832 3.487 12.964 8.733-.561.581-1.042 1.241-1.436 1.972-1.447-5.063-6.124-8.705-11.528-8.705-6.617 0-12 5.383-12 12s5.383 12 12 12c2.335 0 4.59-.684 6.522-1.937-.322.577-.522 1.231-.522 1.937 0 .203.031.398.06.593-1.883.906-3.955 1.407-6.06 1.407zm6.259-6.213c-1.512 1.217-3.333 1.968-5.259 2.16v-1.947h-2v1.949c-2.008-.2-3.842-.998-5.324-2.211l1.374-1.374-1.414-1.414-1.374 1.374c-1.213-1.482-2.011-3.316-2.211-5.324h1.949v-2h-1.949c.2-2.008.998-3.842 2.211-5.324l1.374 1.374 1.414-1.414-1.374-1.374c1.482-1.213 3.316-2.011 5.324-2.211v1.949h2v-1.947c1.994.201 3.828.999 5.317 2.215l-1.367 1.368 1.414 1.414 1.373-1.373c1.023 1.246 1.746 2.746 2.069 4.4-2.354 1.65-3.806 4.335-3.806 7.308v.32c0 .704.096 1.401.259 2.082zm1.741 4.213c0-1.103.897-2 2-2v4c-1.103 0-2-.897-2-2zm2.058-4h-.058c-.529 0-1.031.108-1.494.296-.33-.822-.506-1.701-.506-2.591v-.32c0-2.859 1.716-5.394 4.371-6.456l.398-.159.159-.398c1.063-2.656 3.597-4.372 6.457-4.372h5.595c6.077 0 11.02 4.943 11.02 11.021 0 1.12-.169 2.218-.499 3.277-.464-.189-.97-.298-1.501-.298v-1c0-3.388-2.426-6.251-5.768-6.809l-1.068-.178-.328 1.973 1.068.178c2.035.34 3.593 1.885 3.994 3.836h-10.996c-2.703 0-4.902-2.199-4.902-4.902v-.098l-2 .098c0 .878.171 1.715.472 2.489l-1.274.493c-1.679.648-2.873 2.171-3.14 3.92zm13.496 20.133-1.12 1.867h-.867l-1.12-1.867c.507-.079 1.023-.133 1.553-.133s1.046.054 1.554.133zm3.047.998-.379 3.035-1.9-1.425 1.244-2.073c.354.137.701.289 1.035.463zm-8.166-.462 1.244 2.073-1.9 1.425-.379-3.035c.333-.175.68-.327 1.035-.463zm3.345 3.331h.439l1.673 6.693-1.892 1.893-1.893-1.893zm10.22 6v6h-20v-6c0-3.052 1.378-5.784 3.54-7.62l.682 5.454 3.126-2.345-1.455 5.817 4.107 4.108 4.107-4.107-1.455-5.817 3.126 2.345.682-5.454c2.162 1.835 3.54 4.567 3.54 7.619zm-9-12h-2c-2.404 0-4.665-.937-6.364-2.637-1.7-1.699-2.636-3.96-2.636-6.364v-8.257c0-1.229.771-2.354 1.918-2.798l1.554-.601c1.265 1.614 3.226 2.657 5.43 2.657h11.098v9.001c-.001 4.962-4.038 8.999-9 8.999zm11-12v-4c1.103 0 2 .897 2 2s-.897 2-2 2z"/><path d="m25 10h-2v6.414l2.293 2.293 1.414-1.414-1.707-1.707z"/><path d="m20 60h-2v-18.388l-8 2.667v15.721h-2v-14.388l-8 2.667v13.721h28v-24.388l-8 2.667zm-14 0h-4v-10.279l4-1.333zm6-14.279 4-1.333v15.612h-4zm10-4 4-1.333v19.612h-4z"/><path d="m.104 38h28.792v2h-28.792z" transform="matrix(.938 -.348 .348 .938 -12.656 7.475)"/></g></g></svg>